<?xml version="1.0" encoding="utf-8"?>
<!-- Generator: Adobe Illustrator 28.2.0, SVG Export Plug-In . SVG Version: 6.00 Build 0)  -->
<svg version="1.1" id="Layer_1" xmlns="http://www.w3.org/2000/svg" xmlns:xlink="http://www.w3.org/1999/xlink" x="0px" y="0px"
	 width="6120px" height="671.1px" viewBox="0 0 6120 671.1" style="enable-background:new 0 0 6120 671.1;" xml:space="preserve">
<style type="text/css">
	.st0{fill:#3D3D3D;}
	.st1{fill-rule:evenodd;clip-rule:evenodd;fill:#3D3D3D;}
</style>
<g id="_20_century_Fox">
	<path class="st0" d="M1618.7,38.9c-3.1,0.4-9.3,3-14.3,6.9s-10,12-10.8,15c-0.8,3-1.7,9.8,1,14.6c4.3,7.1,12.1,8.7,14.9,8.9
		c7.6,0.3,15.1-2.2,20.8-7.2c7.1-5.7,8.9-10.9,9.9-19.2c0.7-6.7-3.1-12.7-7.8-16.1C1628.1,38.8,1621.9,38.5,1618.7,38.9z"/>
	<polygon class="st0" points="1715.5,196.5 1553.1,215.3 1753.7,237.2 1753.5,210.9 	"/>
	<path class="st0" d="M1536.6,220l-11.5-1c-6.8,0.6-13.7,1.4-20.4,2.6c-6.5,1.2-14.6,11.2-11.2,21.2c3.1,9.5,16,14.6,16,14.6
		l-62.6,7.1v10.8h338.3v-26.7L1536.6,220z"/>
	<path class="st0" d="M1464,214.1c0,0,0.4-3.5,3.6-3.1c2.5,0.1,5.2,0.4,7.7,0.9c2.1,0.7,2.9,2.2,2.8,4.5v39l16.4-2.1
		c0,0-5.8-2.2-7.8-12.8c-0.6-3.2-0.9-8.4,3.4-15.2c4.3-6.6,12.7-9.3,15.5-9.6c2.9-0.3,211.1-25.4,211.1-25.4l36.9,14.7v-3.5
		c-0.1-1.9,1.3-3.3,3.2-3.4c0.1,0,0.1,0,0.2,0c4.9,0,5.2,0,7.8-0.1c4.3,0,3.9,3.7,3.9,3.7l-0.1,37.2l16.4,1.7V0.2h-42.7l17.3,176.2
		c0,0-0.4,3-2.4,3.4c-1.1,0.2-2.1-0.3-2.4-1.4c0-0.1,0-0.1,0-0.2l-7.7-29.2l-31.6-11.4l-33,30.9L1710,186l-26.4,3.1l-14.9-9.5
		l-11.6,12.3l-25.2,3L1654,172l-33.8-19.5l-16,2.4c0,0,13.8,4.1,19.4,8.7c5.6,4.6,6.6,9.6,5.3,17.8s-10.1,14.4-10.1,14.4l-51.7,6.3
		l-6-3c0,0-7.7-3.9-8-12.2c-0.4-7.6,8-19.4,8-19.4l-13.1-3.7v11.7l-26.4,4.1v9.2l23.7-3.1v10.7l-23.3,3.4l0.1,7.7l-15.7,2.1V173
		l-5.2,0.8V166l214.3-37.7l29.5,11l-9.8-40.1l-19.4-7.3l-13.6,21.1l-0.1,11.5l-10.4,2.1v-11.4l-8.8-8.8l-11.5-2.6
		c0,0,2.4,1.5,3.4,2.1c2.9,2.2,3.6,4.4,3.6,7.9c0,4.9-6.4,7.4-6.4,7.4l10.8,7.1l-10.9,2.2l-12.3-6.4l-0.1,8.5l-9.3,1.7v-24.7
		l-7.4-2.2c0,0,0,17.1-0.1,23.3c-0.1,4.9-5.3,6.2-5.3,6.2s-12.2,3.4-16.5,2.1c-2.4-0.8-4.1-3-4.2-5.5V116l-3.7-2.4l-0.1,7.5
		l-7.2,1.7l0.1,19.5l-8.9,1.7l0.1-19.2l-7.3,1.3l-0.1-4.9l-4.5-2v26.6l-8.6,1.5l-11.8-10.3l0.1,12.3l-8.4,1.5l0.1-22.3l-6.5-2v6
		l-10.9,2.9v4.7l9.5-2.1v5.5l-9.5,2.1v4.3l10.7-1.7l0.1,3.7l-18.9,3.4l0.1-18.9c0,0-2.2-0.6-8-1.3c2.8,1.9,2.1,3.3,2.1,3.3l-4.3,4.3
		c0,0-1.7-2.2-5.8-1.3c-3.3,0.7-4.7,3.7-4.7,6.7s1.9,7.1,6,6.4c3.6-0.7,5.5-4.3,5.5-4.3l5.1,2.6l-2.6,3.7c0,0-13.6,2.6-15.8,2.9
		c-4.5-1.7-5.6-5.6-5.7-9.3c-0.2-4.3,1.3-8.6,4.2-11.8l-5.1-2.9v-5.5l213.9-47.4l17.5,6.7l-7.1-28.2l-14.4-4.9l-0.1,20.6l-6.3,1.3
		V63.9c-0.1-5.1-1.3-6.1-3.1-6.3c-3.1-0.1-4.1,2.4-4.1,6.7v16l-7.3,1.5l-0.1-33.4l-42.4-17.8c1.5,1.5,3.1,3.2,4.4,4.9
		c5.2,6.4,7.7,13.2,5.7,25.4c-1.2,7.4-4.2,14.3-8.6,20.3c-4.4,7.5-15.1,14.7-15.1,14.7s-25.7,6.2-32.6,6.7
		c-6.9,0.6-15.9-5.7-20.3-10.1c-4.2-4.4-7.1-9.8-8.2-15.8c-1.3-5.7,2.6-20.9,2.6-20.9l-9.5-5.1c0,0,1.7,3.6,2.3,5.6
		c0.7,2,1.9,4.4,0.2,11.8c-0.6,3.2-1.9,6.1-3.9,8.6l-22.2,27.2l26.6-5.1v10.8l-62.1,13.9v-7.1c0,0,37.5-42.7,39.7-45.9
		c3.4-4.7,4.7-8.8,0.4-12.2c-4.3-3.4-9.2-2-13.9,2.1c-4.3,3.6-6.5,11.7-6.5,11.7l-19,3.1l4.9-14.6c5.5-12.9,22.4-18.7,30.1-19.6
		c4.3-0.6,11.4,2,11.4,2l22.8,10.1c0,0,0.8-1.2,2-3.3c3.1-5.8,17.1-20.9,22.2-23.5c8.6-4.2,18.3-6,27.9-5.1
		c5.1,0.7,16.5,5.1,16.5,5.1l44.5,18.6l-0.1-12.8l7.7-2.8l22.4,9.5l-9.3-38.8L1512.3,0c0,0-32.9,179.2-33.4,183
		c-0.6,2.9-2,4.1-5,3.4c-2.6-0.7-2-4.9-2-4.9L1479.8,0h-32.4v259.3l17.3-2.1L1464,214.1z M1766.7,182.6c0,0,2.4,7.7-6.3,9.4
		c-6.9,1.3-9.5-5.7-9.5-5.7L1766.7,182.6z M1674.4,53.1l6.5-1.5v7.9l5.3-1.3v6.3l-5.3,1.7v18.1l-6.5,2V53.1z M1464.8,191.2l17.1,2.8
		c0,0,0,8.9-9.9,7.9C1462.5,200.7,1464.8,191.2,1464.8,191.2z"/>
	<path class="st0" d="M1698.3,54.8c1.4-2,3.5-3.2,6-3.4c2.4-0.3,5,0.6,6.6,2.4l14.6,5.1l-4.3-16.6l-22.9-9.6L1698.3,54.8z"/>
	<path class="st0" d="M1572.3,186.2c2.1,2.6,5.1,3.6,9.8,4.5c3.7,0.9,12.2,0.6,18.1-1.5c5.8-2.1,8-3.9,10.6-7.3s2.3-7.3-1.7-10.6
		c-4-3.3-9.9-4.3-17.3-3.7c-6.3,0.4-13.6,3.9-15.5,5.5C1572.3,176.2,1568.4,181.4,1572.3,186.2z"/>
	<polygon class="st0" points="1577.4,127.5 1561.3,122.4 1577.2,138 	"/>
	<polygon class="st0" points="1700.7,100.6 1688.4,97.9 1696.4,107.2 	"/>
	<polygon class="st0" points="1667.2,160.4 1676.4,151.6 1646,146.8 1646,146.8 	"/>
	<path class="st0" d="M1625.9,129.9c0,3.5,1.3,3.6,3.9,3.1s3.5-1.9,3.6-3.7c0.1-1.9-0.1-15.2-0.1-15.2l-7.4-3.9V129.9z"/>
	<path class="st0" d="M1664.8,116.8c1.3-0.1,2.3-1.1,2.4-2.4c0.3-1.4-0.3-2.8-1.7-3.4c-1.3-0.4-5.1,0-5.1,0l0,0v6.7
		C1661.9,117.5,1663.4,117.2,1664.8,116.8z"/>
</g>
<g id="Amazon">
	<path class="st0" d="M1173.8,560.9c-26.2,11-54.2,16.8-82.5,16.9c-39.3,0-77.3-10.7-108.1-28.6c-2.7-1.6-4.6,1.2-2.5,3.1
		c29.7,26.7,68.2,41.4,108.1,41.2c29.9,0,64.6-9.4,88.4-27.1C1181.3,563.6,1177.9,559.3,1173.8,560.9z"/>
	<path class="st0" d="M1158.8,551.1c-2.2,1.5-1.8,3.4,0.6,3.1c7.6-1,24.9-3,27.9,0.9s-3.4,20.1-6.4,27.3c-0.9,2.2,1,3,3,1.5
		c12.8-10.7,16.2-33.2,13.6-36.5C1195.1,544.2,1172.6,541.4,1158.8,551.1z"/>
	<path class="st0" d="M994.3,541.4h12.7c1.3,0.1,2.5-0.9,2.6-2.2v-34.7c0-7.6-0.3-18,8.8-18c8.9,0,7.8,10.9,7.8,18v34.7
		c0.1,1.3,1.1,2.3,2.4,2.4h12.7c1.4,0,2.5-1,2.5-2.4l0,0v-34.7c0-3.7-0.1-9.2,1.2-12.5c1.3-3.1,4.2-5.3,7.6-5.4
		c3.7,0,6.5,1.3,7.5,5.6c0.6,2.6,0.3,9.5,0.3,12.3v34.7c0.1,1.3,1.1,2.3,2.4,2.4h12.5c1.4,0,2.5-1,2.5-2.4l0,0v-41.4
		c0-7.1,0.9-15-3.1-20.5c-3.4-4.7-8.9-7.4-14.7-7.3c-7.5,0-14.6,3.9-17.6,12.2c-3.4-8.2-8.5-12.2-16.5-12.2s-13.7,3.9-16.8,12.2
		h-0.3v-8.4c-0.1-1.3-1.1-2.2-2.4-2.2h-11.9c-1.4,0-2.5,1-2.5,2.4l0,0v65.3C992.3,540.4,993.2,541.4,994.3,541.4L994.3,541.4z"/>
	<path class="st0" d="M1126.5,497.2c-7.4,0.9-17.1,1.5-24,4.5c-7.9,3.4-13.6,10.4-13.6,20.8c0,13.1,8.4,19.8,19.1,19.8
		c8.9,0,14-2.2,21-9.2c2.4,3.3,3.1,5.1,7.4,8.5c1,0.6,2.2,0.4,3-0.3c2.6-2.2,7.3-6.2,10-8.4c1-0.7,0.9-2.2,0-3.3
		c-2.4-3.3-4.8-5.9-4.8-11.9v-19.8c0-8.4,0.6-16.2-5.6-22c-4.9-4.8-13-6.4-19.2-6.4c-12.2,0-25.6,4.5-28.4,19.5
		c-0.2,1.3,0.6,2.5,1.9,2.6l12.3,1.3c1.2,0,1.9-1.2,2.2-2.4c1-5.2,5.4-7.6,10.3-7.6c2.7-0.1,5.4,1.1,7.1,3.3
		c1.9,2.6,1.6,6.2,1.6,9.2V497.2L1126.5,497.2z M1124.1,523.8c-2.1,3.6-5.2,5.8-8.8,5.8c-4.9,0-7.8-3.7-7.8-9.2
		c0-10.9,9.7-12.8,18.9-12.8v2.7C1126.5,515.1,1126.6,519.3,1124.1,523.8z"/>
	<path class="st0" d="M1330.4,477.9c-3.6-5.7-9.2-7.6-14.9-7.6c-8.8,0-13.7,4.2-17.4,13.1h-0.3v-10c-0.3-1.1-1.3-1.9-2.4-1.9h-11.9
		c-1.3,0-2.3,0.9-2.5,2.2v65.5c0.1,1.3,1.1,2.3,2.4,2.4h12.7c1.4,0,2.5-1,2.6-2.4v-35.3c0-4.5,0.3-8.4,2.1-12.4c1.3-3,4.1-5,7.4-5.2
		c8.8,0,7.9,10.4,7.9,17.6v35.6c0.3,1.1,1.2,2,2.4,2.1h12.7c1.3,0.1,2.3-0.9,2.5-2.1v-41.2C1333.7,491.9,1333.7,483.1,1330.4,477.9z
		"/>
	<path class="st0" d="M1242.6,470.1c-18.5,0-28.7,15.9-28.6,36.3c0,20.2,10.1,36.5,28.6,36.5c17.9,0,29.2-15.9,29.2-35.9
		C1271.9,486.4,1261.6,470.1,1242.6,470.1z M1242.5,529.4c-10,0-9.8-17.1-9.8-25s0.6-20.8,10-20.8l0,0c4,0,7,1.8,8.4,6.4
		c1.6,5.2,1.9,11.9,1.9,17.4C1252.9,515.7,1252.4,529.4,1242.5,529.4L1242.5,529.4z"/>
	<path class="st0" d="M1205.5,523.7c-7.3-4-15.8-5.2-23.8-5.1l21.7-31c2.1-2.8,3.1-4.6,3.1-5.9v-7.9c-0.1-1.3-1.2-2.4-2.5-2.4h-42
		c-1.3-0.1-2.3,0.9-2.4,2.2c0,0.1,0,0.1,0,0.2v9.4c0.1,1.3,1.2,2.4,2.5,2.4h21.9l-25.2,36c-1.2,2-1.7,4.1-1.6,6.4v9.5
		c0,1.3,1,2.3,2.3,2.3c0.3,0,0.6,0,0.8-0.1c13.8-7.3,30.4-7.4,44.2-0.1c1.6,0.9,3-0.7,3-2.2v-10
		C1207.6,525.8,1206.8,524.4,1205.5,523.7z"/>
	<path class="st0" d="M982.2,529.5c-2.4-3.3-4.8-5.9-4.8-11.9v-19.8c0-8.4,0.6-16.2-5.7-22c-4.9-4.8-13-6.4-19.2-6.4
		c-12.2,0-25.6,4.5-28.4,19.5c-0.2,1.3,0.6,2.5,1.9,2.6l12.3,1.3c1.2,0,1.9-1.2,2.2-2.4c1-5.2,5.4-7.6,10.3-7.6
		c2.7-0.1,5.4,1.1,7.1,3.3c1.9,2.6,1.6,6.2,1.6,9.2v1.6c-7.4,0.9-17.1,1.5-24,4.5c-7.9,3.4-13.6,10.4-13.6,20.8
		c0,13.1,8.4,19.8,19.1,19.8c8.9,0,14-2.2,21-9.2c2.4,3.3,3.1,5.1,7.4,8.5c1,0.6,2.2,0.4,3-0.3c2.6-2.2,7.3-6.2,10-8.4
		C983.3,532.2,983.1,530.7,982.2,529.5z M957.2,523.8c-2.1,3.6-5.2,5.8-8.8,5.8c-4.9,0-7.8-3.7-7.8-9.2c0-10.9,9.7-12.8,18.9-12.8
		v2.7C959.5,515.1,959.6,519.3,957.2,523.8z"/>
</g>
<g id="Lego">
	<path class="st0" d="M105.6,194.5"/>
	<path class="st0" d="M0,0v275.2h275V0H0z M267.3,113.8c0,1.6-0.1,3.3-0.3,4.9c-0.2,1.6-0.5,3.3-0.8,5.1c-0.7,3.5-1.6,7.4-2.7,11.5
		c-2.3,8.8-5.4,17.5-9.1,25.8c-2.4,5.5-5.4,10.8-8.9,15.7s-7.9,9.1-13,12.4c-4.9,3.1-10.3,5.3-16,6.3c-3.6,0.7-7.3,1-11,1h-1.3
		c-4.7,0-9.4-0.8-13.9-2.3c-4.9-1.6-9.4-4.5-12.9-8.3l0,0c-0.5-0.6-1-1.1-1.5-1.8c-2,1.8-4.2,3.4-6.5,4.8l0,0
		c-8.3,5.1-17.9,7.8-27.6,7.7h-0.9c-6,0-12-1.2-17.5-3.7l0,0c-2.3-1.1-4.5-2.4-6.5-4c-3.4,2.4-7.2,4.3-11.2,5.5l0,0
		c-5.3,1.6-10.9,2.4-16.5,2.3c-4.8,0-9.6-0.8-14.2-2.4c-3.2-1.1-6.2-2.7-8.9-4.7c-1.9,1.3-4,2.4-6.2,3.3c-6.3,2.4-13,3.6-19.7,3.5
		c-4.7,0.1-9.4-0.7-13.8-2.4c-4.4-1.6-8.2-4.3-11.3-7.8l0,0c-2-2.3-3.6-4.8-4.7-7.6c-1.4-3.5-2.1-7.2-2.1-10.9v-0.3l0,0
		c0.2-6.8,1.3-13.6,3.3-20.1c2.8-9.7,6.1-19.3,10.1-28.6c1.9-4.6,4-9.3,6.1-13.6s4.3-8.4,6.5-12c1.4-2.4,3-4.6,4.8-6.7l0,0
		c3-3.6,6.9-6.5,11.2-8.3l0,0c4.1-1.7,8.4-2.5,12.8-2.5l0,0c3.2,0,6.4,0.5,9.4,1.5l0,0c3.6,1.2,6.8,3.4,9.3,6.2l0,0
		c0.5,0.5,0.9,1.1,1.3,1.7c2-1.6,4.2-3.1,6.4-4.4l0,0c6.7-3.7,15.3-6,25.5-6h0.1c3.6,0,7.2,0.3,10.8,0.9c3.4,0.6,6.6,1.8,9.6,3.4
		c1.8,0.9,3.4,2.1,4.9,3.4c1.9-1.2,4-2.3,6.1-3.2c6.7-2.8,13.9-4.2,21.1-4.1h0.1c6.4-0.1,12.7,0.8,18.7,2.9l0,0
		c4.6,1.6,8.8,4.3,12.2,7.8c4.5-3.6,9.6-6.3,15-8c5-1.6,10.2-2.4,15.5-2.4c1.3,0,2.6,0.1,3.9,0.2c5,0,9.9,1,14.6,2.8h-0.1
		c4.6,1.9,8.7,4.9,11.9,8.7l0,0c1.8,2.2,3.4,4.7,4.5,7.4c1.3,3,2.2,6.2,2.7,9.4l0,0C267.1,107.1,267.3,110.5,267.3,113.8
		L267.3,113.8z"/>
	<path class="st0" d="M227.8,109c-3,0-5.2,1.1-7.9,5.7c-3.6,6.2-13.4,32.5-14.2,41.3c-0.6,6.4,6.4,6.2,10,1.2
		c5.6-7.8,13.9-35,15.1-41.5C231.6,111.8,230.8,109,227.8,109z"/>
	<path class="st0" d="M257.5,97.2c-0.9-2.1-2.1-4-3.5-5.8c-2.4-2.9-5.6-5.2-9.1-6.7c-3.9-1.5-8-2.3-12.2-2.3
		c-1.2-0.1-2.3-0.2-3.5-0.2c-4.5,0-9,0.7-13.3,2.1c-6.3,2-12,5.6-16.6,10.4c-0.6,0.6-1.1,1.2-1.6,1.9c-0.8-1.7-1.7-3.3-2.9-4.7
		c-2.8-3.4-6.5-5.9-10.7-7.3c-5.2-1.8-10.8-2.6-16.3-2.5c-6.3-0.1-12.5,1.1-18.3,3.6c-3.7,1.7-7.1,3.8-10.2,6.5
		c-0.7-1.5-1.7-2.8-2.9-3.9c-1.2-1.2-2.6-2.2-4.1-3c-2.4-1.3-4.9-2.1-7.6-2.6c-3.1-0.5-6.2-0.8-9.4-0.8c-9.3,0-16.6,2-22.2,5.1
		c-4.5,2.5-8.4,6-11.4,10.2c-0.6,0.9-1.2,1.8-1.9,2.8c0.1-0.7,0.1-1.4,0.1-2.1c0-1.9-0.3-3.8-1-5.6c-0.6-1.5-1.4-3-2.5-4.2
		c-1.6-1.9-3.8-3.4-6.2-4.1c-2.3-0.8-4.7-1.1-7.1-1.1c-3.5,0-6.9,0.6-10.1,1.9c-3.3,1.4-6.2,3.6-8.6,6.3c-1.5,1.9-3,3.8-4.2,5.9
		c-2,3.3-4.1,7.2-6.2,11.4s-4.1,8.7-5.9,13.2c-3.8,9-7.1,18.3-9.8,27.7c-2,7.5-3,13.4-3,18.4v0.2c0,2.8,0.5,5.6,1.6,8.2
		c0.8,2.1,2,3.9,3.5,5.6c2.3,2.7,5.3,4.7,8.6,5.9c3.6,1.3,7.4,2,11.3,1.9c5.8,0.1,11.6-0.8,17-2.9c3.2-1.3,6.1-3.2,8.6-5.6
		c0.2-0.1,0.3-0.3,0.4-0.5c0.3,0.3,0.6,0.6,0.9,1c2.9,2.8,6.4,5,10.2,6.3c3.8,1.4,7.8,2,11.8,2c4.9,0.1,9.7-0.6,14.4-2
		c5.2-1.5,9.9-4.4,13.6-8.4c2.4,3.1,5.6,5.6,9.2,7.3c4.8,2.2,10,3.2,15.3,3.1h0.1c8.4,0.1,16.7-2.2,23.9-6.6
		c4.5-2.8,8.5-6.5,11.7-10.7c0.2,0.6,0.4,1.2,0.7,1.8c1.1,2.6,2.6,5,4.5,7c2.8,2.9,6.3,5.1,10.1,6.4c3.8,1.2,7.8,1.9,11.8,1.9h1.1
		c3.3,0,6.5-0.2,9.7-0.8c4.8-0.9,9.4-2.7,13.5-5.3c4.3-2.9,8.1-6.5,11.2-10.7c3.2-4.5,5.9-9.3,8.1-14.4c3.6-8,6.5-16.3,8.7-24.8
		c1.1-4,1.9-7.7,2.5-11c0.3-1.7,0.5-3.2,0.7-4.6s0.3-2.7,0.3-4.1c0-3-0.2-6-0.6-8.9C259.2,102.3,258.5,99.7,257.5,97.2z M47.5,156.8
		c2.6-0.5,5.3-0.7,8-0.6c5.4,0,9.3,2.9,9.3,7.1c0,3.6-0.8,18-24.6,18c-11.8,0-16.8-6.4-16.7-13.6c0.1-8,3.1-21.1,12.2-43.1
		c4.8-11.7,10.7-23.4,14.9-28.4c3.1-3.7,7.4-5.4,12.5-5.4c6.4,0,8.6,2.8,8.6,6.9c0,2.9-1.1,8.2-3.6,14.4
		C60.9,130.1,47.5,156.8,47.5,156.8z M103.1,144.7c-3.2-0.1-6.4-0.5-9.6-1.1c-1.6,4.5-3,9-4.1,13.6c4.2-1.2,8.5-1.8,12.8-2
		c5.7,0,12.7,1.6,12.7,9.3c0,7.4-6.9,17.1-25.7,17.1c-11.3,0-21.4-6.6-21.4-18.4s3.6-23.5,8.5-36.6s8.8-19.9,12.2-24.8
		S99.1,90,115.3,90c14.7,0,17.8,5.3,17.8,10.6c0,4.6-3.5,12.7-17.9,12.7c-5.1,0-9.2-0.1-9.2-0.1s-4.3,7.4-5.4,11.1
		c0,0.2,3.7-0.7,7.7-0.7s11.2,0.8,11.2,6.9C119.5,136.6,114.7,144.7,103.1,144.7z M175.5,123.6c-7,0-9-4.3-8.2-7.6
		c0.8-3.3,3.5-7.4-2.7-7.4c-6.2,0-8.4,4.1-12.6,13.3s-10.6,27.6-10.6,33.5c0,7.7,13.3,9.4,17.8-8.7c0,0-7.3-0.1-7.3-5.8
		s4.4-11,8.6-12.1s12-1.7,15.8,0.2s5.2,5,5.2,10.4c0,8.5-8.1,42.1-39.8,42.1s-22.7-35.7-15.1-53.7c9-21.4,17.8-37.6,41.2-37.6
		c20.6,0,23.7,9.4,23.7,15.9S187.7,123.6,175.5,123.6z M233.3,167.8c-7.8,10.4-16.7,13.8-28.9,13.6s-20.1-5.6-20.7-18.9
		c-0.6-14.1,11.3-51.4,21.4-62c11.3-11.9,27.1-9.7,27.1-9.7c18.5,0,19.9,13.8,19.9,23.1S243.5,154.2,233.3,167.8z"/>
	<path class="st0" d="M15.3,167.6"/>
</g>
<g id="Microsoft">
	<path class="st0" d="M5149.5,153.1c-1.4,0.5-2.8,0.7-4.2,0.8c-3.1,0.1-6.1-1-8.3-3.2c-2.1-2.5-3.3-5.6-3.1-8.9
		c-0.1-3.4,1-6.7,3.2-9.2c2.1-2.3,5.2-3.5,8.3-3.4c3,0.1,6,1.1,8.4,2.9l0.4,0.3v-8.5l-0.1-0.1c-1.3-0.7-2.7-1.1-4.1-1.4
		c-1.6-0.4-3.3-0.5-4.9-0.5c-3.8-0.1-7.5,0.8-10.8,2.6c-3,1.7-5.5,4.2-7.1,7.3c-1.6,3.4-2.5,7.1-2.4,10.8c0,3.4,0.8,6.7,2.4,9.7
		c1.5,2.8,3.8,5.1,6.6,6.7c3,1.6,6.3,2.5,9.7,2.4c3.7,0.1,7.4-0.7,10.7-2.5l0.1-0.1v-8.1l-0.4,0.3
		C5152.5,151.8,5151,152.5,5149.5,153.1z"/>
	<path class="st0" d="M5179.2,122.1c-2.2,0-4.2,0.7-5.9,2.1c-1.6,1.3-2.7,3.1-3.4,5h-0.1v-6.5h-8.9v37.6h8.9v-19.2
		c-0.2-2.8,0.6-5.6,2.2-8c1.3-1.9,3.4-3,5.7-3c0.9,0,1.8,0.1,2.7,0.4c0.7,0.2,1.4,0.4,2.1,0.8l0.4,0.3v-8.9l-0.1-0.1
		C5181.6,122.2,5180.4,122,5179.2,122.1z"/>
	<path class="st0" d="M5114.3,106.7c-1.4,0-2.8,0.5-3.8,1.5s-1.6,2.3-1.6,3.7c0,1.4,0.5,2.7,1.6,3.6c1,1,2.4,1.5,3.8,1.4
		c1.4,0,2.8-0.5,3.8-1.4s1.6-2.2,1.6-3.6c0-2.8-2.2-5.2-5.1-5.2C5114.5,106.7,5114.4,106.7,5114.3,106.7L5114.3,106.7z"/>
	<polygon class="st0" points="5072.9,146.8 5057.5,107.8 5044.5,107.8 5044.5,160.3 5052.9,160.3 5052.9,119.9 5053.2,119.9 
		5069.5,160.3 5075.9,160.3 5092,119.9 5092.2,119.9 5092.2,160.3 5101.3,160.3 5101.3,107.8 5088.8,107.8 	"/>
	<rect x="5109.8" y="122.7" class="st0" width="8.9" height="37.6"/>
	<path class="st0" d="M5275.1,121.8c-6.2,0-11.1,1.8-14.6,5.4c-3.5,3.6-5.3,8.5-5.3,14.8c0,5.9,1.7,10.6,5.2,14.1s8.1,5.2,13.9,5.2
		c6,0,10.8-1.8,14.4-5.5s5.3-8.5,5.3-14.6s-1.7-10.8-5-14.2C5285.5,123.5,5280.9,121.8,5275.1,121.8z M5282.1,150.8
		c-1.7,2.1-4.2,3.1-7.4,3.1c-2.9,0.2-5.7-1-7.6-3.2c-1.8-2.1-2.7-5.2-2.7-9c0-4,0.9-7.1,2.7-9.3c3.9-4.2,10.4-4.4,14.5-0.6
		c0.1,0.1,0.3,0.2,0.4,0.4c1.8,2.1,2.7,5.2,2.7,9.2S5283.8,148.7,5282.1,150.8z"/>
	<path class="st0" d="M5340.6,152.8c-0.6,0.3-1.2,0.6-1.8,0.8c-0.6,0.2-1.2,0.3-1.8,0.3c-1.4,0.1-2.8-0.4-3.8-1.4
		c-0.8-0.9-1.2-2.6-1.2-4.8v-17.8h9v-7.2h-9v-11.2l-0.3,0.1l-8.4,2.6l-0.2,0.1v8.5h-13.3v-4.7c-0.1-1.8,0.4-3.6,1.5-5
		c1-1.2,2.5-1.8,4.1-1.7c1.4,0,2.7,0.3,3.9,0.9l0.3,0.1v-7.6l-0.2-0.1c-1.6-0.5-3.3-0.7-5-0.7c-2.5,0-4.9,0.6-7.1,1.7
		c-2.1,1.1-3.7,2.7-4.8,4.8c-1.1,2.2-1.7,4.6-1.7,7v5.2h-6.2v7.2h6.2v30.4h9v-30.4h13.3v19.3c0,8,3.8,12,11.2,12
		c1.3,0,2.6-0.1,3.8-0.4c1-0.2,1.9-0.5,2.8-0.9l0.1-0.1v-7.3L5340.6,152.8z"/>
	<path class="st0" d="M5203.3,121.8c-6.2,0-11.1,1.8-14.6,5.4c-3.5,3.6-5.3,8.5-5.3,14.8c0,5.9,1.7,10.6,5.2,14.1s8.1,5.2,13.9,5.2
		c6,0,10.8-1.8,14.4-5.5c3.6-3.7,5.3-8.5,5.3-14.6s-1.7-10.8-5-14.2C5213.9,123.6,5209.1,121.8,5203.3,121.8z M5210.3,150.8
		c-1.7,2.1-4.2,3.1-7.4,3.1c-2.9,0.2-5.7-1-7.6-3.2c-1.8-2.1-2.7-5.2-2.7-9c0-4,0.9-7.1,2.7-9.3c3.9-4.2,10.4-4.4,14.5-0.6
		c0.1,0.1,0.3,0.2,0.4,0.4c1.8,2.1,2.7,5.2,2.7,9.2S5212,148.7,5210.3,150.8z"/>
	<path class="st0" d="M5241.6,138.3c-2.8-1.1-4.6-2-5.3-2.8c-0.7-0.8-1.1-1.8-1.1-2.9s0.5-2.1,1.4-2.7c1.1-0.8,2.4-1.2,3.8-1.1
		c1.5,0,3,0.2,4.5,0.7c1.4,0.4,2.7,1,4,1.8l0.4,0.3v-8.2l-0.1-0.1c-1.3-0.5-2.6-0.9-4-1.1c-1.4-0.3-2.9-0.5-4.4-0.5l0,0
		c-3.7-0.1-7.4,1-10.4,3.2c-2.6,2-4.1,5-4,8.3c0,1.6,0.3,3.2,0.9,4.7c0.6,1.4,1.6,2.5,2.7,3.5c1.6,1.3,3.5,2.3,5.4,3
		c1.5,0.6,3,1.3,4.5,2.1c0.8,0.4,1.4,0.9,2,1.6c0.4,0.6,0.6,1.4,0.6,2.1c0,2.5-1.9,3.8-5.8,3.8c-1.7,0-3.3-0.3-4.9-0.9
		c-1.8-0.6-3.5-1.4-5-2.5l-0.4-0.3v8.6l0.1,0.1c1.5,0.7,3.1,1.2,4.8,1.5c1.7,0.4,3.4,0.6,5.1,0.6c4.6,0,8.3-1.1,11-3.2
		c2.6-2,4.2-5.2,4.1-8.5c0.1-2.4-0.7-4.7-2.2-6.5C5247,140.9,5244.4,139.3,5241.6,138.3z"/>
	<rect x="4930.6" y="90.3" class="st0" width="41.6" height="41.6"/>
	<rect x="4976.6" y="90.3" class="st0" width="41.6" height="41.6"/>
	<rect x="4930.6" y="136.3" class="st0" width="41.6" height="41.6"/>
	<rect x="4976.6" y="136.3" class="st0" width="41.6" height="41.6"/>
</g>
<g id="MSN">
	<polygon class="st1" points="3650.6,477.8 3650.6,475.4 3650.4,475.4 3650.4,474.2 3650.3,474.2 3650.3,473.1 3650.1,473.1 
		3650.1,472.3 3650,472.3 3650,472.2 3650,471.6 3649.8,471.6 3649.8,471.1 3649.8,470.8 3649.7,470.8 3649.7,470.5 3649.7,470 
		3649.5,470 3649.5,469.4 3649.4,469.4 3649.4,468.6 3649.2,468.6 3649.2,468 3649,468 3649,467.5 3648.9,467.5 3648.9,467.1 
		3648.7,467.1 3648.7,466.4 3648.6,466.4 3648.6,466 3648.4,466 3648.4,465.5 3648.3,465.5 3648.3,465 3648.1,465 3648.1,464.7 
		3648,464.7 3648,464.3 3647.8,464.3 3647.8,463.8 3647.6,463.8 3647.6,463.3 3647.5,463.3 3647.5,463 3647.3,463 3647.3,462.7 
		3647.2,462.7 3647.2,462.4 3647,462.4 3647,461.9 3646.9,461.9 3646.9,461.6 3646.7,461.6 3646.7,461.3 3646.6,461.3 3646.6,461 
		3646.4,461 3646.4,460.5 3646.3,460.5 3646.3,460.2 3646.1,460.2 3646.1,459.9 3645.9,459.9 3645.9,459.6 3645.8,459.5 
		3645.6,459.5 3645.6,459.1 3645.5,459.1 3645.5,458.8 3645.3,458.7 3645.2,458.7 3645.2,458.4 3644.9,458.1 3644.7,458.1 
		3644.7,457.8 3644.2,457.3 3644.1,457.3 3644.1,457 3642.7,455.6 3642.4,455.4 3642.2,455.3 3641.9,455.1 3641.8,455 3639.6,453.9 
		3638.2,453.4 3637.3,453.3 3635.7,453.1 3634.2,453.1 3632.5,453.3 3632,453.4 3631.4,453.6 3630.9,453.7 3630.3,453.9 3629.8,454 
		3629.5,454.2 3629,454.3 3628.7,454.5 3628.3,454.7 3628,454.8 3627.5,455 3622.2,457.6 3622.1,457.8 3621.5,458.1 3621.3,458.2 
		3620.7,458.5 3620.5,458.7 3619.9,459 3619.7,459.1 3619.1,459.5 3619,459.6 3618,460.1 3617.7,460.4 3617.4,460.5 3617.3,460.7 
		3617,460.9 3616.8,461 3616.5,461.2 3616.3,461.3 3616,461.5 3615.9,461.6 3615.6,461.8 3615.4,461.9 3615.1,462.1 3614.9,462.2 
		3614.6,462.4 3614.5,462.6 3614.2,462.7 3614,462.9 3613.7,463 3613.5,463.2 3613.2,463.3 3612.8,463.8 3612.5,464 3612,464.4 
		3611.7,464.6 3611.4,464.9 3611.1,465 3610.6,465.5 3610.3,465.7 3609.8,466.1 3609.5,466.3 3609.2,466.6 3608.9,466.7 
		3607.8,467.8 3607.5,468 3606.6,468.9 3606.3,469.1 3605.3,470 3605,470.2 3600.8,474.3 3600.7,474.7 3599.6,475.7 3599.4,476 
		3598.7,476.8 3598.5,477.1 3598,477.6 3597.9,477.9 3597.4,478.4 3597.3,478.7 3597,479 3596.8,479.3 3596.6,479.5 3596.5,479.8 
		3596.3,479.9 3596.2,480.2 3596,480.4 3595.9,480.7 3595.6,481 3595.4,481.3 3595.3,481.5 3595.1,481.8 3594.9,481.9 3594.8,482.2 
		3594.6,482.4 3594.5,482.7 3594.2,483 3594,483.5 3591.7,488.1 3591.5,488.6 3591.4,488.9 3591.2,489.4 3591.1,489.7 3590.8,490.6 
		3590.6,490.9 3590.4,491.4 3590.3,491.7 3590.1,492.2 3590,492.5 3590.1,492.6 3590.1,492.6 3590,492.8 3589.2,492 3588.6,491.7 
		3588.1,491.5 3586.9,491.5 3586.7,491.7 3586.6,491.9 3586.3,492 3586.1,492.2 3585.8,492.8 3585.6,492.9 3585.5,494 3585.5,494.2 
		3585.5,495.6 3585.5,495.6 3585,495.1 3584.7,495 3583.9,494.2 3583.6,494 3582.8,493.3 3582.5,493.1 3581.8,492.3 3581.5,492.2 
		3581.1,491.9 3580.8,491.7 3580.5,491.4 3580.2,491.2 3579.9,490.9 3579.6,490.8 3579.3,490.5 3579,490.3 3578.7,490 3578.4,489.8 
		3578,489.5 3577.7,489.4 3577.4,489.1 3577.1,488.9 3577,488.8 3576.6,488.6 3576.5,488.4 3576.2,488.3 3576,488.1 3575.7,488 
		3575.6,487.8 3575.3,487.7 3575.1,487.5 3574.8,487.4 3574.6,487.2 3574.3,487.1 3574.2,486.9 3573.9,486.7 3573.7,486.6 
		3573.4,486.4 3573.2,486.3 3572.9,486.1 3572.8,486 3572.5,485.8 3572.3,485.7 3572,485.5 3571.8,485.3 3571.2,485 3571.1,484.9 
		3570.1,484.4 3570,484.3 3569.4,484 3569.2,483.8 3568.3,483.3 3568.1,483.2 3567.5,482.9 3567.3,482.7 3566.4,482.2 3566.3,482.1 
		3565,481.5 3564.9,481.3 3563.3,480.5 3563.2,480.4 3561.6,479.6 3561.5,479.5 3561.1,479.3 3560.7,479.1 3558.8,478.2 
		3558.4,478.1 3556.5,477.1 3556,477 3555.7,476.8 3555.3,476.7 3554.9,476.5 3554.5,476.4 3554.2,476.2 3553.7,476 3553.4,475.9 
		3552.5,475.6 3552.2,475.4 3551.7,475.3 3551.4,475.1 3546.7,473.6 3542.4,472.5 3540.1,472.5 3538.7,472.6 3537.7,472.9 
		3537.1,473.3 3537,473.4 3536.7,473.6 3536,474.2 3535.7,474.3 3535.6,474.7 3535.4,474.8 3535.1,475.4 3534.9,475.9 3534.8,476.2 
		3534.6,477.3 3534.6,477.4 3534.6,478.8 3534.6,479.1 3534.8,479.1 3534.8,479.9 3534.8,480.1 3534.9,480.1 3534.9,480.7 
		3534.9,480.9 3535.1,480.9 3535.1,481.3 3535.1,481.5 3535.3,481.5 3535.3,481.9 3535.3,482.1 3535.4,482.1 3535.4,482.4 
		3535.4,482.6 3535.6,482.6 3535.6,482.9 3535.6,483 3535.7,483 3535.7,483.3 3535.7,483.5 3535.9,483.5 3535.9,483.6 3535.9,484 
		3536,484 3536,484.1 3536,484.3 3536.2,484.3 3536.2,484.4 3536.2,484.7 3536.3,484.7 3536.3,484.9 3536.3,485 3536.5,485 
		3536.5,485.2 3536.5,485.5 3536.7,485.5 3536.7,485.7 3536.7,485.8 3536.8,485.8 3536.8,486 3536.8,486.1 3537,486.1 3537,486.3 
		3537,486.4 3537.1,486.4 3537.1,486.6 3537.1,486.7 3537.3,486.7 3537.3,486.9 3537.3,487.2 3537.4,487.2 3537.4,487.4 
		3537.4,487.5 3537.6,487.5 3537.6,487.7 3537.6,487.8 3537.7,487.8 3537.7,488 3537.7,488.1 3537.9,488.1 3537.9,488.3 
		3537.9,488.4 3538,488.4 3538,488.6 3538,488.9 3538.2,488.9 3538.2,489.1 3538.2,489.2 3538.4,489.2 3538.4,489.4 3538.4,489.5 
		3538.5,489.5 3538.5,489.7 3538.5,489.8 3538.7,489.8 3538.7,490 3538.7,490.2 3538.8,490.2 3538.8,490.3 3538.8,490.6 3539,490.6 
		3539,490.8 3539.1,490.8 3539.1,491.1 3539.3,491.1 3539.3,491.2 3539.3,491.4 3539.4,491.4 3539.4,491.5 3539.4,491.7 
		3539.6,491.7 3539.6,491.9 3539.6,492 3539.8,492 3539.8,492.2 3539.8,492.3 3539.9,492.3 3539.9,492.5 3540.1,492.5 3540.1,492.8 
		3540.2,492.8 3540.2,492.9 3540.2,493.1 3540.4,493.1 3540.4,493.3 3540.4,493.4 3540.5,493.4 3540.5,493.6 3540.5,493.7 
		3540.7,493.7 3540.7,493.9 3540.7,494 3540.8,494 3540.8,494.2 3541,494.2 3541,494.5 3541.1,494.5 3541.1,494.6 3541.1,494.8 
		3541.3,494.8 3541.3,495 3541.3,495.1 3541.5,495.1 3541.5,495.3 3541.5,495.4 3541.6,495.4 3541.6,495.6 3541.6,495.7 
		3541.8,495.7 3541.8,495.9 3541.9,495.9 3541.9,496.2 3542.1,496.2 3542.1,496.4 3542.2,496.4 3542.2,496.7 3542.4,496.7 
		3542.4,496.8 3542.4,497 3542.5,497 3542.5,497.1 3542.7,497.1 3542.7,497.4 3542.9,497.4 3542.9,497.6 3542.9,497.7 3543,497.7 
		3543,497.9 3543.2,497.9 3543.2,498.2 3543.3,498.2 3543.3,498.4 3543.3,498.5 3543.5,498.5 3543.5,498.7 3543.6,498.7 3543.6,499 
		3543.8,499 3543.8,499.1 3543.9,499.1 3543.9,499.5 3544.1,499.5 3544.1,499.6 3544.1,499.8 3544.2,499.8 3544.2,499.9 
		3544.4,499.9 3544.4,500.2 3544.6,500.2 3544.6,500.4 3544.6,500.5 3544.7,500.5 3544.7,500.7 3544.9,500.7 3544.9,501 3545,501 
		3545,501.2 3545.2,501.2 3545.2,501.5 3545.3,501.5 3545.3,501.6 3545.5,501.6 3545.5,501.9 3545.6,501.9 3545.6,502.1 
		3545.8,502.1 3545.8,502.4 3546,502.4 3546,502.6 3546.1,502.6 3546.1,502.9 3546.3,502.9 3546.3,503 3546.4,503 3546.4,503.3 
		3546.6,503.3 3546.6,503.5 3546.7,503.5 3546.7,503.8 3546.9,503.8 3546.9,504 3547,504 3547,504.3 3547.2,504.3 3547.2,504.4 
		3547.3,504.4 3547.3,504.7 3547.5,504.7 3547.5,504.9 3547.7,504.9 3547.7,505.2 3547.8,505.2 3547.8,505.3 3548,505.3 3548,505.7 
		3548.1,505.7 3548.1,505.8 3548.3,505.8 3548.4,506 3548.4,506.3 3548.6,506.3 3548.6,506.4 3548.7,506.4 3548.9,506.6 
		3548.9,506.9 3549.1,506.9 3549.1,507.1 3549.2,507.1 3549.2,507.4 3549.4,507.4 3549.4,507.5 3549.5,507.5 3549.7,507.7 
		3549.7,508 3549.8,508 3549.8,508.1 3550,508.1 3550.1,508.3 3550.1,508.6 3550.3,508.6 3550.5,508.8 3550.5,509.1 3550.6,509.1 
		3550.6,509.2 3550.8,509.2 3550.9,509.4 3550.9,509.7 3551.1,509.7 3551.1,509.8 3551.2,509.8 3551.4,510 3551.4,510.3 
		3551.5,510.3 3551.8,510.6 3551.8,510.9 3552,510.9 3552.3,511.2 3552.3,511.5 3552.5,511.5 3552.8,511.9 3552.8,512.2 
		3552.9,512.2 3552.9,512.3 3553.1,512.3 3553.4,512.6 3553.4,512.9 3553.5,512.9 3553.5,513.1 3553.7,513.1 3553.8,513.2 
		3553.9,513.3 3553.9,513.6 3554,513.6 3554.2,513.7 3554.2,513.9 3554.3,513.9 3554.3,514.2 3554.5,514.2 3554.8,514.5 
		3554.8,514.6 3554.8,514.8 3554.9,514.8 3555.3,515.1 3555.3,515.3 3555.3,515.4 3555.4,515.4 3556.8,516.8 3556.8,517 3557,517 
		3557.1,517.1 3557.1,517.4 3557.3,517.4 3558.2,518.4 3558.2,518.5 3558.4,518.5 3558.6,518.7 3558.8,519 3558.8,519.3 3559,519.3 
		3559.9,520.2 3559.9,520.4 3560.1,520.4 3563,523.3 3563,523.6 3563.2,523.6 3563.2,523.8 3563.5,523.8 3566.6,526.9 3566.9,527 
		3567.7,527.8 3567.7,527.8 3568,528.1 3568.3,528.3 3569.1,529.1 3569.4,529.2 3569.8,529.7 3570.1,529.8 3570.4,530.2 
		3570.5,530.2 3571.1,530.8 3571.2,530.8 3571.2,531.1 3571.4,531.1 3571.4,531.2 3571.4,531.4 3571.5,531.4 3571.5,531.5 
		3571.5,531.9 3571.7,531.9 3571.7,532 3571.7,532.2 3571.8,532.2 3571.8,532.3 3571.8,532.5 3572,532.5 3572,532.6 3572,532.9 
		3572.2,532.9 3572.2,533.1 3572.2,533.3 3572.3,533.3 3572.3,533.4 3572.3,533.6 3572.5,533.6 3572.5,533.7 3572.5,534 3572.6,534 
		3572.6,534.2 3572.6,534.3 3572.8,534.3 3572.8,534.5 3572.8,534.6 3572.9,534.6 3572.9,534.8 3572.9,535.1 3573.1,535.1 
		3573.1,535.3 3573.1,535.4 3573.2,535.4 3573.2,535.6 3573.2,535.7 3573.4,535.7 3573.4,535.9 3573.4,536 3573.5,536 3573.5,536.2 
		3573.5,536.4 3573.7,536.4 3573.7,536.5 3573.7,536.7 3573.9,536.7 3573.9,536.8 3573.9,537 3574,537 3574,537.1 3574,537.3 
		3574.2,537.3 3574.2,537.4 3574.2,537.6 3574.3,537.6 3574.3,537.7 3574.3,537.9 3574.5,537.9 3574.5,538.1 3574.5,538.2 
		3574.6,538.2 3574.6,538.4 3574.6,538.5 3574.8,538.5 3574.8,538.7 3574.8,538.8 3574.9,538.8 3574.9,539 3574.9,539.1 
		3575.1,539.1 3575.1,539.3 3575.1,539.5 3575.3,539.5 3575.3,539.6 3575.3,539.8 3575.4,539.8 3575.4,539.9 3575.4,540.1 
		3575.6,540.1 3575.6,540.2 3575.7,540.2 3575.7,540.5 3575.9,540.5 3575.9,540.8 3576,540.8 3576.2,541 3576.2,541.3 3576.3,541.3 
		3576.3,541.6 3576.5,541.6 3576.5,541.8 3576.6,541.8 3576.6,542.1 3576.8,542.1 3576.8,542.4 3577,542.4 3577,542.5 3577.1,542.5 
		3577.1,542.9 3577.3,542.9 3577.4,543 3577.4,543.3 3577.6,543.3 3577.6,543.6 3577.7,543.6 3577.7,543.8 3577.9,543.8 
		3577.9,544.1 3578,544.1 3578.2,544.3 3578.2,544.6 3578.4,544.6 3578.4,544.9 3578.5,544.9 3578.8,545.2 3578.8,545.5 3579,545.5 
		3579.3,545.8 3579.3,546.1 3579.4,546.1 3579.7,546.4 3579.7,546.7 3579.9,546.7 3580.2,547 3580.2,547.4 3580.4,547.4 
		3580.7,547.7 3580.7,548 3580.8,548 3581,548.1 3581,548.4 3581.1,548.4 3581.1,548.6 3581.3,548.6 3581.6,548.9 3581.6,549.2 
		3581.8,549.2 3582.4,549.8 3582.4,550 3582.5,550 3583,550.5 3583,550.8 3583.2,550.8 3583.8,551.4 3583.8,551.5 3583.9,551.5 
		3584.4,552 3584.4,552.3 3584.6,552.3 3584.9,552.6 3585.2,552.8 3586.7,554.3 3587,554.5 3588.1,555.6 3588.4,555.7 3588.7,556 
		3589,556.2 3589.4,556.5 3589.7,556.7 3590,557 3590.3,557.1 3590.6,557.4 3590.9,557.6 3591.2,557.9 3591.5,558.1 3591.7,558.2 
		3592,558.4 3592.1,558.5 3592.8,558.8 3592.9,559 3593.5,559.3 3593.7,559.5 3594.3,559.8 3594.5,559.9 3595.1,560.2 3595.3,560.4 
		3595.6,560.5 3595.7,560.7 3596.6,561 3597,561.2 3597.4,561.3 3598.7,561.6 3599.6,561.8 3599.6,561.6 3600.4,561.5 3600.4,561.5 
		3600.5,561.5 3600.5,561.4 3600.7,561.3 3601.1,561.2 3601.8,560.8 3601.9,560.7 3602.2,560.5 3602.8,559.9 3603,559.6 
		3603.2,559.5 3603.6,558.5 3603.6,558.5 3603.9,557.9 3604.2,557 3604.4,556.7 3604.9,555.3 3604.9,555.3 3605,554.8 3605.2,554.2 
		3605.2,554.2 3605.5,552.9 3605.6,552.2 3605.8,551.4 3606,550.2 3606.1,549.4 3606.3,548.3 3606.4,547.4 3606.6,545.8 
		3606.7,544.1 3606.9,542.2 3606.6,541.9 3606.6,541.5 3607.2,542.1 3607.5,542.2 3609,543.8 3609.4,543.9 3609.8,544.4 
		3610.1,544.6 3610.6,545 3610.9,545.2 3611.4,545.7 3611.7,545.8 3612.1,546.3 3612.5,546.4 3613.1,547 3613.7,547.4 3613.9,547.5 
		3614.2,547.7 3614.3,547.8 3614.6,548 3614.8,548.1 3615.1,548.3 3615.3,548.4 3615.6,548.6 3615.7,548.8 3616,548.9 3616.2,549.1 
		3616.5,549.2 3616.6,549.4 3617.3,549.7 3617.4,549.8 3618.3,550.3 3618.5,550.5 3620.1,551.2 3620.2,551.4 3621.8,552.2 
		3621.9,552.3 3623.8,552.9 3624.7,553.1 3627.2,553.2 3627.2,553.1 3627.8,552.9 3628.7,552.6 3629.7,552.2 3629.8,552 
		3630.1,551.9 3630.3,551.7 3630.6,551.5 3630.8,551.4 3631.1,551.2 3633.4,548.9 3633.7,548.8 3634.9,547.5 3635.1,547.2 
		3635.7,546.6 3635.9,546.3 3636.5,545.7 3636.6,545.3 3637.3,544.7 3637.4,544.4 3638,543.8 3638.2,543.5 3638.5,543.2 
		3638.7,542.9 3638.8,542.7 3639,542.4 3639.1,542.2 3639.3,541.9 3639.4,541.8 3639.6,541.5 3639.7,541.3 3640.2,540.4 
		3640.4,540.2 3640.8,539.3 3641,539.1 3641.3,538.5 3641.4,538.1 3641.9,537.1 3642.1,536.7 3642.7,535.4 3642.8,535 3643.3,534 
		3643.5,533.6 3643.6,533.3 3644.4,530.9 3645.2,527.8 3645.5,526 3645.6,525.2 3645.8,523.8 3645.9,522.2 3646.1,516.2 
		3645.9,516.2 3645.9,515 3645.8,515 3645.8,513.6 3645.6,513.6 3645.6,512.6 3645.5,512.6 3645.5,511.7 3645.3,511.7 3645.3,510.9 
		3645.2,510.9 3645.2,510.3 3645.2,510.2 3645.2,510 3645.2,509.9 3645.3,510 3645.3,509.7 3646.7,505.5 3647,504.3 3647.2,503.8 
		3647.5,502.6 3647.6,502.1 3648.6,498.4 3648.7,497.6 3649,496.4 3649.2,495.6 3649.5,493.7 3649.7,492.9 3650,491.1 3650.4,486.9 
		3650.6,484.6 3650.7,477.8 	"/>
	<path class="st1" d="M3459,567.2c-1.9-3.7-5.1-6.8-9.6-9.5c-2.9-1.7-6-3-9.3-3.9c-4.1-1.3-8.3-2.3-12.6-3.1l-9.3-2
		c-1.8-0.3-3.4-1.1-4.8-2.2c-1-0.8-1.4-2.1-1.2-3.3c0-1.9,1.1-3.3,3.3-4c2.8-1,5.7-1.4,8.7-1.2c2.4,0.1,4.8,0.6,7,1.4
		c1.7,0.7,3.2,1.8,4.5,3.1c1.1,1.4,2,2.9,2.8,4.5l25.7-5.3c-1.9-4.9-5-9.2-9-12.6c-3.9-3.3-8.4-5.7-13.2-7.3
		c-5.1-1.5-10.4-2.4-15.7-2.5l-13,0.6c-4.2,0.5-8.2,1.5-12.2,2.9c-3.7,1.3-7.1,3.2-10.2,5.6c-6.5,4.7-10.2,12.3-10.1,20.3
		c-0.1,3.7,0.8,7.4,2.6,10.7c1.8,3,4.3,5.5,7.3,7.4c3.3,2.1,6.8,3.8,10.5,5c4,1.4,8.1,2.5,12.2,3.4l9.6,2.3c1.8,0.4,3.5,1.2,5.1,2.2
		c1.1,0.8,1.7,2.1,1.7,3.4c-0.1,1.2-0.7,2.3-1.7,3.1c-1.3,0.9-2.8,1.5-4.3,1.9l-6.5,0.6c-4.5-0.2-8.2-1.1-11-2.8
		c-3-1.8-5.4-4.5-6.7-7.8l-26.5,5.6c2,5.5,5.3,10.4,9.6,14.3c4.3,3.7,9.4,6.3,14.9,7.8c6.2,1.8,12.7,2.6,19.2,2.3
		c5.3,0,10.5-0.5,15.7-1.6c4.9-0.9,9.6-2.6,14-5c4.2-2.1,7.8-5.2,10.5-9c2.7-3.9,4.3-8.5,4.5-13.2
		C3461.9,575.1,3461,570.9,3459,567.2z"/>
	<path class="st1" d="M3376,543.2c0-4.2-1-8.3-2.9-12.1c-1.9-3.4-4.8-6.1-8.2-7.9c-4.1-1.8-8.5-2.7-13-2.6c-5.5-0.3-10.9,1-15.7,3.6
		c-4.5,2.3-8.4,6.2-11.6,11.3c-1.4-4.4-4.1-8.3-7.8-11.2c-3.6-2.5-8.1-3.7-13.6-3.7c-3.4,0-6.9,0.5-10.2,1.4
		c-3.4,1.1-6.6,2.7-9.5,4.8c-1.4,1.2-2.7,2.4-4,3.7c-1.5,1.6-2.8,3.3-4,5.1l2.3-12.7H3248l-14.7,82h32.1l8.4-47.1l1.7-7.4l1.2-2.3
		c1.7-3,5-4.8,8.4-4.7c4.5,0,6.8,2.3,7.1,7v2.5l-9.1,52.1h32.1l9.3-51.8c0.2-1,0.5-1.9,0.9-2.8c0.2-0.8,0.6-1.6,1.1-2.3
		c0.9-1.5,2.3-2.8,3.9-3.6c1.4-0.8,3.1-1.2,4.7-1.1c4.5,0,6.8,2.3,7.1,7v2.5l-9.3,52.1h33l9.6-53.3
		C3376,548.8,3376.1,546,3376,543.2z"/>
	<path class="st1" d="M3544.4,523.2c-4-1.8-8.3-2.7-12.7-2.6c-3.6,0-7.2,0.5-10.7,1.4c-3.3,0.9-6.5,2.3-9.3,4.2
		c-1.8,1.2-3.4,2.7-4.8,4.3c-1.4,1.6-2.6,3.3-3.7,5.1l2.3-12.7H3475l-14.7,82h32.6l8.7-48.4c0.8-4.5,2.3-7.9,4.3-10.1
		c2.3-2.1,5.3-3.2,8.4-3.1c2.6,0,4.5,0.6,5.9,2c1.4,1.3,2.1,3.2,2,5.1l-0.3,2.5l-9.1,51.9h33.2l9.5-53l0.6-5.7v-4.7
		C3555.9,533.6,3551.4,526.5,3544.4,523.2L3544.4,523.2z"/>
</g>
<g id="P_G">
	<path class="st1" d="M5897.3,112.9c17.5-43.3-15.3-55.1-36.7-55.1h-70.9c5.9,4.1,4.9,9.4,3.8,12.7l-41.3,132
		c-1.7,5.2-7.8,10.7-11.1,11.6h57.4c-3.1-0.6-7.7-5.1-6-11.2l15-47.7C5807.4,155.2,5876.4,164.5,5897.3,112.9z M5856.4,110.3
		c-14.1,41.3-45.2,32.8-45.2,32.8l23-73.1h7.4C5849,70,5869.8,70.9,5856.4,110.3z"/>
	<path class="st1" d="M5943.8,190.2c5.9-6.4,13.1-14.5,14.5-30.9h-20c2.4,1.5,3.9,4.1,3.9,6.9c-0.1,5.3-1.9,10.4-5.1,14.6
		c-5.9-8.7-12.1-18.6-14.3-33.1c7.8-3.9,18.9-8.1,27.7-15.8c8.3-7.3,10.2-14.2,10.4-18.6v-0.6c0-4.7-1.8-9.2-5.2-12.4
		c-5.8-5.7-15-8.1-24.5-6.3c-6.5,1.3-12.6,4.3-17.6,8.6c-11.7,10.9-13.2,28.9-13.2,37.1c0,1.5,0.1,2.9,0.2,4.4
		c-0.7,0.3-1.9,0.7-1.9,0.7c-8.5,3.1-31.2,9.2-39.4,27.9c-1.7,4.3-2.5,8.8-2.5,13.4c-0.1,5.7,1.4,11.3,4.4,16.1
		c5.7,8.9,15.5,14.6,31,14.3c16.9-0.3,33.6-11.8,36.6-13.9c2.9,2.7,10.5,9.8,14.5,11.7h38.6C5969.4,210.2,5951.1,198.5,5943.8,190.2
		z M5900.8,200.6c-7.8,0.7-20.7-2.3-20.7-17.9c0-13.3,14.5-23.1,22.3-26.4c3.7,13.5,9.8,26.3,18,37.6
		C5918.2,195.3,5909.3,199.8,5900.8,200.6z M5926.4,109.4c3.9-6,9.1-8.7,13.3-7.2c3.3,1.1,3.7,4.3,3.4,7.6
		c-2,12.6-18.3,25.3-22.3,27C5920.2,129.7,5920.5,118.6,5926.4,109.4z"/>
	<path class="st1" d="M6052.3,146.8l-17.7,56.5c-2.4,0.5-51.9,12.8-24.2-73.9c6-18.6,22.7-52.7,50-59.3
		c22.9-5.5,41.8,12.4,43.6,13.7l6.6-20.8c-9.1-2.7-74.9-25-121.4,28.1c-28.6,32.7-35.6,99.6,0.7,117.5c38.8,19.2,81.7-3,84.9-4.5
		l17.8-56.5c1.9-6.8,6.2-11.3,13.9-14.1h-61.6C6053.7,137.3,6053,144.1,6052.3,146.8z"/>
</g>
<g id="Shell">
	<path class="st0" d="M2791.2,538.8c0-65.7-46-122.4-110.3-136l-0.1-0.2c-9.1-1.9-18.5-2.8-27.8-2.8h-0.8
		c-76.3,0.4-138.2,62.5-138.2,138.9c0,9.3,0.9,18.7,2.8,27.8l42.5,31.1l6.7,52h70.7l4,3.2c7.3,5.3,17.3,5.3,24.6,0l4.2-3.2h70.7
		l6-52l-0.1-0.2l42.3-30.9C2790.2,557.4,2791.2,548.1,2791.2,538.8z M2765.8,553.5l-42.3,30.9l-5.3,41.4h-50.7l-7.9,5.5
		c-1.9,1.4-4.2,2.1-6.5,2.1s-4.6-0.7-6.5-2.1l-7.7-5.5h-51.4l-4.7-41.4l-42.5-30.8c-1.2-4.8-1.9-9.7-1.9-14.7
		c0-8.3,1.7-16.5,5.1-24.1l74.6,75.6l-72.5-89.8c2.9-11.6,9.2-22.1,18.1-30.1l65.1,112.5l-57.6-123.2c7.5-9.9,17.9-17.3,29.8-20.9
		l39.8,139.5l-29.2-145.2c8.9-5,18.8-7.6,29-7.6c2.1,0,4.3,0.1,6.4,0.4l5.7,151.1l6.2-151.1c2.1-0.2,4.3-0.4,6.4-0.4
		c10.2,0,20.2,2.6,29,7.6l-28.8,145.2l39.7-139.4c11.9,3.7,22.3,11,29.8,20.9l-57.4,123.2l64.8-112.5c9,7.9,15.3,18.4,18.1,30.1
		l-73,89.8l75.1-75.6c3.4,7.6,5.1,15.8,5.1,24.1C2767.7,543.9,2767,548.8,2765.8,553.5L2765.8,553.5z"/>
</g>
<g id="Sony_Pictures_Animation">
	<path class="st0" d="M2421.2,108.6c3.8,0,7.5-1.5,10.1-4.3l-4.1-4.1c-1.5,1.7-3.7,2.6-6,2.6c-4.5,0-8.2-3.7-8.2-8.2
		s3.7-8.2,8.2-8.2c2.3,0,4.5,0.9,6,2.6l4.1-4.1c-2.6-2.8-6.3-4.3-10.1-4.3c-7.7,0-14,6.3-14,14S2413.4,108.6,2421.2,108.6z"/>
	<path class="st0" d="M2221.7,80.7c-7.7,0-14,6.3-14,14s6.3,14,14,14s14-6.3,14-14S2229.4,80.7,2221.7,80.7z M2221.7,102.9
		c-4.5,0-8.2-3.7-8.2-8.2s3.7-8.2,8.2-8.2s8.2,3.7,8.2,8.2C2229.8,99.2,2226.2,102.9,2221.7,102.9z"/>
	<polygon class="st0" points="2173.4,174.1 2197.8,174.1 2202.5,165.4 2207.2,174.1 2231.6,174.1 2202.5,120.9 	"/>
	<path class="st0" d="M2597.6,103c-2.3-0.2-4.5-1.1-6.2-2.6l-3,4.6c2.5,2.4,5.8,3.7,9.3,3.6c6.1,0,9.1-4.2,9.1-8.2s-3.2-7.3-7.4-8.8
		c-2.7-0.9-4.6-2.2-4.6-3.6c0-1.4,1-2.2,2.7-2.2c2.9,0,5.8,2.7,5.8,2.7l3.2-4.3c-2.4-2.4-5.6-3.7-9-3.7c-5.8,0-8.8,4.2-8.8,8
		c0,3.2,2.1,6.1,7.8,8.2c4.2,1.6,3.8,3,3.8,4C2600.4,102,2599.5,103,2597.6,103z"/>
	<path class="st0" d="M2184,103c-2.3-0.2-4.5-1.1-6.2-2.6l-3,4.6c2.5,2.4,5.8,3.7,9.3,3.6c6.1,0,9.1-4.2,9.1-8.2s-3.3-7.3-7.4-8.8
		c-2.7-0.9-4.6-2.2-4.6-3.6c0-1.4,1-2.2,2.7-2.2c2.9,0,5.8,2.7,5.8,2.7l3.2-4.3c-2.4-2.4-5.6-3.7-9-3.7c-5.7,0-8.8,4.2-8.8,8
		c0,3.2,2.1,6.1,7.8,8.2c4.2,1.6,3.8,3,3.8,4C2186.8,102,2185.9,103,2184,103z"/>
	<polygon class="st0" points="2263.5,143.4 2233.2,120.8 2233.2,174.1 2254.3,174.1 2254.3,163.6 2267.5,174.1 2284.6,174.1 
		2284.6,121.9 2263.5,121.9 	"/>
	<polygon class="st0" points="2423.2,137.5 2435.6,137.5 2435.6,174.1 2456.7,174.1 2456.7,137.5 2469.1,137.5 2469.1,121.9 
		2423.2,121.9 	"/>
	<rect x="2290.3" y="121.9" class="st0" width="21.1" height="52.1"/>
	<path class="st0" d="M2523.8,120.9c-14.8,0-26.8,12-26.8,26.8s12,26.8,26.8,26.8c14.8,0,26.8-12,26.8-26.8l0,0
		C2550.6,132.9,2538.6,120.9,2523.8,120.9z M2523.8,153.3c-3,0-5.5-2.5-5.5-5.5s2.5-5.5,5.5-5.5s5.5,2.5,5.5,5.5l0,0
		C2529.2,150.8,2526.8,153.3,2523.8,153.3L2523.8,153.3z"/>
	<polygon class="st0" points="2583.9,143.4 2553.7,120.8 2553.7,174.1 2574.7,174.1 2574.7,163.6 2587.9,174.1 2605.1,174.1 
		2605.1,121.9 2583.9,121.9 	"/>
	<rect x="2472.6" y="121.9" class="st0" width="21.1" height="52.1"/>
	<polygon class="st0" points="2375.3,174 2399.7,174 2404.4,165.4 2409.2,174 2433.5,174 2404.4,120.9 	"/>
	<polygon class="st0" points="2317.2,121.9 2317.2,174.1 2338,174.1 2338,163.3 2345.4,167.8 2352.7,163.3 2352.7,174.1 
		2373.6,174.1 2373.6,121.9 2345.4,143 	"/>
	<path class="st0" d="M2524.3,97.6h3.1l5.4,10.1h6l-6.2-10.4c2.5-0.7,4.5-2.5,5.5-4.9c0.8-2.1,0.8-4.3,0-6.4
		c-1.3-3.1-4.3-5.1-7.7-5.1h-12.2v26.7h6v-10H2524.3z M2524.3,86.1h5.6c1.8,0,3.2,1.4,3.2,3.2s-1.4,3.2-3.2,3.2h-5.6V86.1z"/>
	<polygon class="st0" points="2257.9,92.9 2273.4,107.9 2275.1,107.9 2275.1,81.2 2269.1,81.2 2269.1,95.7 2253.6,80.7 2251.9,80.7 
		2251.9,107.9 2257.9,107.9 	"/>
	<polygon class="st0" points="2573.2,101.7 2561.8,101.7 2561.8,97.3 2570.7,97.3 2570.7,91.3 2561.8,91.3 2561.8,86.9 2573.2,86.9 
		2573.2,80.9 2555.8,80.9 2555.8,107.7 2573.2,107.7 	"/>
	<polygon class="st0" points="2301.7,89.1 2296.5,81.2 2289.4,81.2 2298.7,94.7 2298.7,107.9 2304.7,107.9 2304.7,94.7 2314.1,81.2 
		2307,81.2 	"/>
	<rect x="2384.2" y="80.9" class="st0" width="6" height="26.7"/>
	<path class="st0" d="M2356.3,98.5h3.9c4.9,0,8.8-3.9,8.8-8.8c0-4.9-3.9-8.8-8.8-8.8h-9.9v26.7h6V98.5z M2356.3,86.9h3.9
		c1.5,0,2.8,1.3,2.8,2.8s-1.3,2.8-2.8,2.8h-3.9V86.9z"/>
	<polygon class="st0" points="2451,107.7 2457,107.7 2457,86.9 2463.1,86.9 2463.1,80.9 2444.9,80.9 2444.9,86.9 2451,86.9 	"/>
	<path class="st0" d="M2500,80.9h-6v16.8c0,2.7-2.2,4.9-4.9,4.9c-2.7,0-4.9-2.2-4.9-4.9V80.9h-6v16.8c0,6,4.9,10.9,10.9,10.9
		s10.9-4.9,10.9-10.9V80.9z"/>
</g>
<g id="VW">
	<path class="st0" d="M1925.5,391.7L1925.5,391.7c-75.4,0-136.5,61.1-136.5,136.5s61.1,136.5,136.5,136.5
		c75.4,0,136.5-61.1,136.5-136.5S2000.9,391.7,1925.5,391.7L1925.5,391.7z M1925.5,652.6L1925.5,652.6
		c-68.6,0-124.3-55.7-124.3-124.3S1856.9,404,1925.5,404s124.3,55.7,124.3,124.3S1994.2,652.6,1925.5,652.6L1925.5,652.6
		L1925.5,652.6z"/>
	<path class="st0" d="M1952.7,435.4c-8.9-2.6-18-3.8-27.2-3.8c-9.2,0-18.3,1.3-27.2,3.8l27.2,60.2L1952.7,435.4z"/>
	<path class="st0" d="M1977.4,446.7l-35.5,79.1h-32.7l-35.6-79.1c-10.2,6.5-19,14.8-26.1,24.4L1892,570l17.3-38.2h32.6l17.3,38.2
		l44.7-98.7C1996.6,461.5,1987.7,453.2,1977.4,446.7z"/>
	<path class="st0" d="M1828.8,528.3c0,36.7,20.7,70.2,53.5,86.6L1832,503.2C1829.9,511.4,1828.8,519.8,1828.8,528.3z"/>
	<path class="st0" d="M1898.8,621.2c8.7,2.5,17.6,3.7,26.7,3.7c9.1,0,18-1.3,26.7-3.7l-26.7-59.3L1898.8,621.2z"/>
	<path class="st0" d="M2019,503.4l-50.4,111.4l0,0c32.8-16.4,53.5-49.9,53.5-86.6C2022.2,519.9,2021.1,511.5,2019,503.4z"/>
</g>
<g>
	<path class="st0" d="M5075.3,395.9v275.2h275.2V395.9H5075.3z M5137,591.1c-1.3,0-2.5,0-3.8,0c-0.5,0-0.7,0.1-0.7,0.7
		c0,4.8,0,9.6,0,14.4c0,0.6-0.1,0.7-0.7,0.7c-1,0-2,0-3,0c-0.5,0-0.7-0.1-0.7-0.6c0-2.4,0-4.8,0-7.2s0-4.9,0-7.3
		c0-0.4-0.1-0.5-0.5-0.5c-1.3,0-2.6,0-3.9,0c-0.4,0-0.6-0.1-0.5-0.5c0-0.9,0-1.8,0-2.7c0-0.4,0.1-0.5,0.5-0.5c4.4,0,8.9,0,13.3,0
		c0.3,0,0.4,0.1,0.4,0.4c0,0.9,0,1.9,0,2.8C5137.5,591,5137.3,591.1,5137,591.1z M5154.4,592.8c-1.5,4.5-2.9,8.9-4.4,13.4
		c-0.1,0.4-0.3,0.6-0.8,0.6c-1.3,0-2.6,0-3.8,0c-0.3,0-0.4-0.1-0.5-0.4c-2-6.2-4.1-12.4-6.1-18.6c0-0.1,0-0.2-0.1-0.4
		c1.5,0,2.9,0,4.3,0c0.3,0,0.3,0.2,0.4,0.4c0.9,3.1,1.7,6.1,2.6,9.2c0.4,1.3,0.7,2.7,1.1,4c0.1,0.2,0.1,0.4,0.2,0.7
		c0.5-1.8,1-3.5,1.5-5.2c0.8-2.9,1.6-5.8,2.5-8.7c0.1-0.2,0.1-0.4,0.4-0.4c1.4,0,2.9,0,4.4,0C5155.6,589.2,5155,591,5154.4,592.8z
		 M5176.2,606.3c0,0.3-0.1,0.4-0.4,0.4c-3.5,0-7.1,0-10.6,0c-0.3,0-0.4-0.1-0.4-0.4c0-6.2,0-12.3,0-18.5c0-0.3,0.1-0.4,0.4-0.4
		c1.2,0,2.3,0,3.5,0c0.4,0,0.5,0.1,0.5,0.5c0,0.6,0,1.2,0,1.8c0,1.8,0,3.7,0,5.5c0,1.8,0,3.6,0,5.5c0,0.6,0,1.2,0,1.8
		c0,0.4,0.1,0.5,0.5,0.5c2,0,4.1,0,6.1,0c0.4,0,0.6,0.1,0.6,0.5C5176.2,604.4,5176.2,605.4,5176.2,606.3z M5183,606.3
		c0,0.4-0.1,0.5-0.5,0.5c-1.1,0-2.3,0-3.4,0c-0.4,0-0.5-0.1-0.5-0.5c0-0.8,0-1.5,0-2.3c0-2.3,0-4.6,0-6.9c0-2.3,0-4.6,0-6.9
		c0-0.8,0-1.5,0-2.3c0-0.4,0.1-0.6,0.5-0.6c1.1,0,2.3,0,3.4,0c0.3,0,0.4,0,0.4,0.4C5183,593.9,5183,600.1,5183,606.3z M5200.6,605.4
		c-3.4,2-6.9,2.4-10.5,0.7c-2.4-1.1-3.6-3.2-4.2-5.7c-0.3-1.1-0.4-2.2-0.4-2.9c0-2.7,0.4-4.9,1.8-6.8c1.7-2.4,4.2-3.5,7.1-3.7
		c1.9-0.1,3.8,0.1,5.6,0.7c0.3,0.1,0.4,0.3,0.3,0.6c-0.3,0.8-0.5,1.6-0.8,2.4c-0.1,0.4-0.3,0.5-0.7,0.4c-1-0.3-2-0.5-3-0.5
		c-2.7,0-4.5,1.2-5.3,3.8c-0.6,2-0.5,3.9,0.2,5.9c1,2.6,3.2,3.7,6,3c0.9-0.2,1.7-0.6,2.5-1c0.2-0.1,0.3-0.1,0.4,0.1
		c0.4,0.8,0.7,1.7,1.1,2.5C5200.9,605.1,5200.9,605.2,5200.6,605.4z M5214.7,606.3c0,0.3-0.1,0.4-0.4,0.4c-3.6,0-7.2,0-10.8,0
		c-0.4,0-0.5-0.2-0.5-0.5c0-3.1,0-6.1,0-9.2l0,0c0-3,0-6.1,0-9.1c0-0.4,0.1-0.6,0.5-0.6c3.6,0,7.1,0,10.7,0c0.4,0,0.5,0.1,0.5,0.5
		c0,0.9,0,1.8,0,2.6c0,0.5-0.1,0.6-0.6,0.6c-2.1,0-4.2,0-6.2,0c-0.4,0-0.5,0.1-0.5,0.5c0,1,0,2,0,3c0,0.4,0.1,0.5,0.5,0.5
		c1.9,0,3.8,0,5.7,0c0.4,0,0.5,0.1,0.5,0.5c0,0.9,0,1.7,0,2.6c0,0.4-0.1,0.5-0.5,0.5c-1.9,0-3.8,0-5.6,0c-0.4,0-0.5,0.1-0.5,0.5
		c0,1.1,0,2.3,0,3.4c0,0.4,0.1,0.5,0.5,0.5c2.1,0,4.2,0,6.2,0c0.5,0,0.6,0.1,0.6,0.6C5214.7,604.5,5214.7,605.4,5214.7,606.3z
		 M5163.7,533.2c-2.7-14.1,0.8-26.8,9.9-38.1c1-1.2,1.4-0.9,2.1,0.1c1.9,2.6,3.9,5.1,6,7.6c0.7,0.8,0.6,1.3,0,2.1
		c-8.1,12-9,24.6-1.5,37c7,11.6,17.8,17.1,31.3,16c15.8-1.3,27.6-12.3,30.3-27.9c1.6-9-0.5-17.3-5.8-24.8c-0.8-1.1-0.7-1.7,0.1-2.7
		c2-2.4,4-4.9,5.8-7.5c0.8-1,1.2-0.9,1.9,0c7.1,8.6,10.7,18.5,10.8,29.7c0,22.5-16.5,41.7-38.6,45.1
		C5191.2,573.8,5168.3,557.8,5163.7,533.2z M5233.6,597.9c0,2.8,0,5.5,0,8.3c0,0.4-0.1,0.5-0.5,0.5c-1,0-2.1,0-3.1,0
		c-0.4,0-0.6-0.1-0.8-0.4c-2.1-3.2-4.3-6.4-6.4-9.6c-0.1-0.2-0.2-0.3-0.4-0.5c-0.1,0.2-0.1,0.4-0.1,0.6c0,3.1,0,6.3,0,9.4
		c0,0.4-0.1,0.5-0.6,0.5c-1.1,0-2.1,0-3.2,0c-0.3,0-0.4-0.1-0.4-0.4c0-6.2,0-12.3,0-18.5c0-0.3,0.1-0.4,0.4-0.4c1.1,0,2.2,0,3.2,0
		c0.2,0,0.4,0,0.5,0.2c1.2,2,2.5,3.9,3.8,5.8c0.9,1.4,1.9,2.9,2.8,4.3c0.1,0.1,0.2,0.3,0.3,0.4h0.1c0-1,0-2,0-2.9c0-2.4,0-4.8,0-7.2
		c0-0.4,0.1-0.5,0.5-0.5c1,0,2.1,0,3.1,0c0.5,0,0.6,0.1,0.6,0.6C5233.6,591.3,5233.6,594.6,5233.6,597.9z M5245.4,606.3
		c-1.9,0.8-3.9,0.9-5.9,0.6c-0.9-0.1-1.8-0.3-2.7-0.6c-0.3-0.1-0.4-0.2-0.4-0.6c0.2-0.9,0.4-1.9,0.5-2.8c0.1-0.4,0.2-0.4,0.5-0.3
		c1.2,0.4,2.5,0.7,3.9,0.7c0.7,0,1.3-0.1,2-0.5c1.3-0.7,1.5-2.1,0.3-3c-0.7-0.6-1.6-0.9-2.4-1.3c-0.9-0.4-1.9-0.9-2.7-1.6
		c-2.5-2-2.7-7.4,1.5-9.3c1.2-0.5,2.3-0.8,3.8-0.8c1.4,0,2.8,0.3,4.1,0.8c0.2,0.1,0.4,0.2,0.3,0.5c-0.3,0.9-0.5,1.7-0.7,2.6
		c-0.1,0.4-0.3,0.3-0.5,0.2c-1.1-0.5-2.3-0.7-3.6-0.7c-0.6,0-1.1,0.2-1.6,0.5c-0.8,0.6-0.9,1.6-0.2,2.3c0.4,0.5,0.9,0.7,1.5,1
		c0.9,0.4,1.7,0.8,2.6,1.2c2.2,1.1,3.4,2.8,3.3,5.3C5249,603.4,5247.8,605.2,5245.4,606.3z M5255.6,606.7c-1.1,0-2.2,0-3.3,0
		c-0.4,0-0.5-0.1-0.5-0.5c0-6.1,0-12.3,0-18.4c0-0.4,0.1-0.5,0.5-0.5c1,0,2,0,3.1,0c0.8,0,0.7-0.1,0.7,0.7c0,3,0,6,0,9
		c0,3,0,6.1,0,9.1C5256.1,606.6,5256,606.8,5255.6,606.7z M5275.3,606.2C5275.3,606.3,5275.3,606.3,5275.3,606.2
		c0,0.2,0,0.2-0.1,0.3v0.1c0,0,0,0-0.1,0.1c-0.1,0.1-0.3,0.2-0.5,0.2h-0.1c-0.2,0-0.4,0-0.6-0.1c-0.1,0-0.2,0-0.3,0
		c-0.2,0-0.3,0-0.5,0c-0.2,0-0.3,0-0.5,0c-0.2,0-0.3,0-0.5,0c-0.2,0-0.3,0-0.5,0c-0.2,0-0.4-0.1-0.5-0.2c0,0-0.1-0.1-0.1-0.2
		c-2-3.1-4.1-6.1-6.1-9.2c-0.1-0.1-0.1-0.2-0.2-0.3c-0.2-0.3-0.4-0.5-0.6-0.8c0,0.1-0.1,0.2-0.1,0.2c0,0.1,0,0.3,0,0.4
		c0,0.8,0,1.6,0,2.4c0,2.4,0,4.7,0,7.1c0,0.3,0,0.4-0.2,0.5c0,0-0.1,0-0.2,0.1h-0.1h-0.1c-0.5,0-1.1,0-1.6,0c-0.3,0-0.5,0-0.8,0
		c-0.3,0-0.5,0-0.8,0c-0.2,0-0.3,0-0.3-0.1c-0.1-0.1-0.1-0.2-0.1-0.3c0-6.2,0-12.3,0-18.5c0-0.1,0-0.2,0-0.3c0,0,0,0,0-0.1
		c0,0,0,0,0.1,0s0.2-0.1,0.3,0c0.5,0,1.1,0,1.6,0s1.1,0,1.6,0c0.2,0,0.4,0.1,0.5,0.2c0.1,0.1,0.1,0.2,0.2,0.2
		c2.2,3.3,4.3,6.5,6.5,9.8l0.1,0.1c0,0.1,0.1,0.1,0.1,0.2c0,0,0.1,0.1,0.1,0.2c0,0,0,0.1,0.1,0.1c0.1-0.3,0.1-0.6,0.1-0.8
		c0-0.1,0-0.2,0-0.2c0-0.8,0-1.5,0-2.3c0-1.5,0-3,0-4.6c0-0.8,0-1.5,0-2.3c0-0.3,0-0.4,0.1-0.5c0.1,0,0.1-0.1,0.3-0.1c0,0,0,0,0.1,0
		h0.1c0.3,0,0.5,0,0.8,0c0.5,0,1,0,1.5,0c0.3,0,0.5,0,0.8,0h0.1c0.1,0,0.2,0,0.3,0h0.1c0,0,0,0,0.1,0.1s0.1,0.2,0.1,0.4
		c0,1.4,0,2.9,0,4.3c0,2.9,0,5.7,0,8.6c0,1.4,0,2.9,0,4.3C5275.3,605.4,5275.4,605.9,5275.3,606.2z M5268.9,455.2
		c-16.4,13.2-29.7,28.9-40.5,46.9c-4.6,7.7-8.7,15.7-12.5,23.9c-0.4,0.9-0.9,1.2-1.9,1.2c-3.6,0-7.2-0.1-10.8,0
		c-1.4,0-1.8-0.3-1.8-1.7c0.1-14.4,0-28.8,0-43.2c0-1.7,0.1-3.5,0-5.2c-0.1-1.1,0.4-1.4,1.4-1.4c3.9,0.1,7.8,0.1,11.7,0
		c1.2,0,1.5,0.4,1.5,1.5c-0.1,5.7,0,11.5,0,17.2c0,0.5-0.2,1.1,0.3,1.7c1.5-2.6,2.9-5.1,4.4-7.6c9.4-15.5,21.4-28.6,36.3-39
		c0.6-0.5,1.3-0.8,2.1-0.8c5.6,0,11.1,0,16.7,0c0.3,0,0.6,0,1.2,0.1C5274.2,451.1,5271.5,453.1,5268.9,455.2z M5293,606
		c-0.7,0.3-1.4,0.6-2.2,0.8c-1.6,0.4-3.3,0.4-4.9,0.3c-1.3-0.1-2.5-0.5-3.7-1.2c-0.6-0.4-1.2-0.8-1.6-1.3c-0.2-0.2-0.3-0.3-0.4-0.5
		c-0.1-0.1-0.1-0.2-0.2-0.3c-0.5-0.6-0.8-1.3-1.1-2.1c-0.2-0.5-0.3-1-0.4-1.5c-0.5-2.2-0.5-4.3,0.1-6.5c1-3.6,3.9-6.1,7.6-6.6
		c1.7-0.2,3.3-0.2,5,0.2c0.5,0.1,1.1,0.3,1.6,0.5c0,0,0,0,0.1,0c0,0,0,0,0.1,0c0,0,0.1,0,0.1,0.1c0.1,0.1,0.2,0.2,0.1,0.4v0.1
		c-0.3,0.8-0.5,1.6-0.8,2.4c-0.1,0.2-0.2,0.4-0.4,0.4c-0.1,0-0.1,0-0.2,0c-0.2-0.1-0.5-0.1-0.7-0.2c-0.1,0-0.2-0.1-0.4-0.1
		c-0.5-0.1-1-0.2-1.5-0.2c-0.1,0-0.3,0-0.4,0s-0.2,0-0.3,0c-0.2,0-0.4,0-0.5,0c-0.2,0-0.3,0-0.5,0.1c-0.7,0.1-1.4,0.3-2,0.7
		c-0.1,0-0.1,0.1-0.2,0.1c-1,0.7-1.8,1.9-2.1,3.4c0,0.1-0.1,0.3-0.1,0.4c0,0.1,0,0.1,0,0.2c-0.1,0.7-0.2,1.3-0.2,2
		c0,0.1,0,0.1,0,0.2c0,0.1,0,0.3,0,0.4c0,0.1,0,0.1,0,0.2c0,0.1,0,0.3,0.1,0.4c0,0.1,0,0.1,0,0.2c0.1,0.4,0.2,0.8,0.4,1.2
		c0.2,0.5,0.4,0.9,0.7,1.4c0.5,0.8,1.2,1.3,1.9,1.6c0.2,0.1,0.3,0.1,0.5,0.2c0.1,0,0.1,0,0.2,0c0.3,0.1,0.7,0.1,1,0.1
		c0.5,0,1-0.1,1.6-0.2c0.1,0,0.1,0,0.2-0.1l0,0v-0.1c0-0.1,0-0.1,0-0.2v-0.1c0-0.4,0-0.8,0-1.2c0-1.2,0-2.4,0-3.6
		c0-0.3,0-0.4,0.1-0.5c0.1-0.1,0.2-0.1,0.4-0.1h0.1c0.5,0,1,0,1.5,0s1,0,1.5,0c0.2,0,0.3,0,0.4,0c0.1,0.1,0.2,0.2,0.2,0.5
		c0,1.2,0,2.4,0,3.7c0,1.2,0,2.4,0,3.6C5293.6,605.6,5293.4,605.8,5293,606z"/>
</g>
<g>
	<path class="st0" d="M4471.1,517.3c1.3-1.3,2.6-2.5,3.8-3.7c1.3-0.9,2.4-2.4,2.9-3.7c0.1-0.9,0.1-1.7-0.1-2.6
		c-0.1-0.5-0.5-0.8-0.8-0.5c-1.3,0.5-2.6,1.3-4.1,2.1c-2.8,1.3-5.7,2.8-8.7,4.1c-6.2,2.6-12.7,4.6-19.4,6.1
		c-18.9,3.6-38.9,4.9-57.5,2.4c-18.6-2.6-36.9-8.3-55.4-12.2c-5.7-1.1-11.5-2.1-17.3-2.9c-5.8-0.8-11.6-1.6-17.6-1.7
		c-5.9-0.3-11.9-0.3-17.6,0.1c-5.7,0.5-11.5,1.6-17.3,2c-0.1,0-0.3,0-0.3-0.1c-0.1-0.1,0-0.3,0.1-0.5c0.7-1.3,1.3-2.1,2.1-2.9
		c2.6-3.6,4.9-7.5,6.7-11.6c0.3-1.1,0.5-2,0.8-3.2c0.1-1.3,0.3-2.4,0.3-3.6c0.1-15.2-14.1-27.8-32.1-28h-3.4
		c-23.3-0.1-39.4,14.5-48.4,23.3c-18.9,18.6-31.1,43.1-34.5,69.4c-4.5,1.7-9.1,3.4-13.7,4.9c-4.2,1.3-8.3,2.5-12.7,3.4
		c-3.7,0.8-7.5,1.3-11.4,1.7c-1.9,0.1-3.7,0.1-5.4,0c-0.9-0.1-1.3,1.7-1.3,2.1c0,3.2,3.4,7.5,13,7.5c7.5,0,18.6-2.4,30.7-5.7
		c0-0.3,0-0.8,0-1.1c-0.1,13.5,2.8,25.6,8.6,32.9c3.7,4.9,10.8,6.7,16.7,7.3c7.5,0.5,15.1-0.5,22.1-3.2
		c14.8-5.2,28.4-13.4,41.2-22.9c1.7-1.3,3.4-2.6,5.2-4.1c1.3-0.9,2.4-1.9,3.6-2.8c1.3-1.1,3.6-3.2,4.9-4.4c0.5-0.5,1.1-1.1,1.6-1.7
		c0.5-0.9,0.9-2,0.9-3.2c0-0.5,0-0.9-0.3-1.3c-0.1-0.1-0.1-0.3-0.3-0.3c-0.3-0.1-0.5,0-0.8,0.1c-1.3,0.5-2.4,1.3-3.6,1.9
		c-1.3,0.5-2.6,1.3-4.1,2c-1.3,0.5-2.5,1.3-3.7,1.9c-2.4,1.1-4.5,2.1-6.7,3.3c-1.1,0.5-2.1,1.1-3.4,1.6c-7.5,3.4-15.2,6.7-23.1,9.5
		c-8.1,2.6-20.8,6.2-26.2-3.3c-2-3.7-2.1-8.2-2-12.4c0-3.4,0.3-6.7,0.8-10.3c5.2-1.9,10-3.8,15.1-5.9c9-3.7,18.1-7.3,27.6-11.1
		c5.2-2,9.9-4.1,15.1-5.7l13.5-4.4c4.9-1.7,10-2.9,15.2-3.7c10.6-1.3,21.4-1.3,32.1,0.5c4.9,0.8,9.6,1.7,14.3,2.8
		c9.1,2.1,18.1,5.2,27.2,7.9c14.1,4.4,28.6,7.1,43.4,8.2c2.5,0.3,4.9,0.5,7.3,0.5c13.2,0.3,26.4-1.3,39.1-5.3
		c7.5-2.4,14.9-5.3,21.9-9l1.3-0.5c2-1.1,4.1-2.4,5.9-3.6C4465.4,521.8,4468.3,519.7,4471.1,517.3z M4249.5,491.1
		c-0.8,6.3-3.2,9.5-7.3,13.6c-10.4,10.4-18.9,13.2-32.1,19.3c-7.5,3.6-15.3,7.1-23.1,10.7c4.4-13.7,10.7-27,18.9-39.1
		c4.1-6.2,7.5-9.5,13.2-14.5c7-6.1,19.2-12.2,26.7-3.4C4249.1,481.3,4250.3,486.4,4249.5,491.1z"/>
	<path class="st0" d="M4396.7,568.2c0.1-8.6-6.5-12.8-18.4-13l-12.7-0.1l-0.5,44.3l7.1,0.1l0.1-16.7l9.5,0.1l11.9,16.8h7.5V599
		l-13.5-18.9C4393.5,577.8,4396.7,573.5,4396.7,568.2z M4383.8,577l-11.5-0.1l0.1-15.9h5.7c8.6,0.1,11.5,2,11.5,7.5
		C4389.5,572.9,4387,575.6,4383.8,577z"/>
	<path class="st0" d="M4345.6,581.3c-0.1,7.7-3,12.8-12.2,12.7c-9.7-0.1-12.7-5.7-12.7-13l0.3-26.2h-6.7l-0.3,27
		c-0.1,9.5,5,17.7,18.8,18c13.7,0.1,19.4-7.4,19.6-17.7l0.3-27h-6.7L4345.6,581.3z"/>
	<polygon class="st0" points="4278.8,578.4 4298.5,578.5 4298.5,572.7 4278.8,572.4 4278.9,560.3 4301.5,560.5 4301.5,554.7 
		4272.1,554.4 4271.6,598.7 4302.4,599 4302.4,593 4278.5,592.8 	"/>
	<path class="st0" d="M4481.5,576l-6.7-2.5c-3.4-1.1-6.5-2.4-6.5-6.2c0.1-4.2,4-5.4,10.7-5.4c4.2,0.1,8.3,1.2,12.3,2.5h0.5v-5.9
		c-4.2-1.6-8.6-2.6-13-2.6c-10,0-17.3,4.1-17.6,11.6c0,5.4,3.2,9.1,9.5,11.5l7.1,2.5c4.6,1.6,7.8,3.4,7.8,7.5
		c0,4.1-3.7,6.5-11.6,6.5c-4.6-0.1-9.4-1.3-13.5-3.3h-0.5v6.2c4.5,1.9,9.4,2.8,14.1,3.2c11.4,0.1,18.6-4.6,18.6-12.7
		C4492.6,581.7,4488,578.4,4481.5,576z"/>
	<path class="st0" d="M4612.3,582.5c5.9-2.4,9-6.7,9-11.9c0-8.6-6.5-12.8-18.4-13l-12.7-0.1l-0.5,44.3l6.7,0.1l0.3-16.7l9.5,0.1
		l11.9,16.8h7.5v-0.8L4612.3,582.5z M4608.7,579.3l-11.5-0.1l0.3-15.9h5.7c8.6,0.1,11.5,2,11.5,7.5
		C4614.4,575.2,4611.7,577.7,4608.7,579.3z"/>
	<path class="st0" d="M4555.6,556.9l-17.4,43.4v0.8l6.3,0.4l4.6-11.9l19.3,0.1l4.1,11.9h7.1v-0.8l-15.6-43.8L4555.6,556.9z
		 M4551.3,583.7l7.9-20.4l7.1,20.5L4551.3,583.7z"/>
	<polygon class="st0" points="4538.2,556.8 4500.3,556.6 4500.3,562.4 4515.9,562.5 4515.6,600.8 4522.4,601 4522.9,562.4 
		4538.2,562.6 	"/>
	<path class="st0" d="M4429.2,555.2c-15.1-0.1-22.9,10.7-23.1,22.6c-0.1,11.6,7.8,22.9,22.9,23c14.9,0.1,22.9-10.7,23-22.6
		C4451.9,566.6,4444.3,555.4,4429.2,555.2z M4429.1,595c-10.4-0.1-16-7.7-15.7-17.3c0-9.7,5.6-17.1,15.9-16.8
		c10.3,0.1,15.7,7.5,15.6,17.1C4444.7,587.9,4439.2,595,4429.1,595z"/>
</g>
<g>
	<path class="st0" d="M112.4,523.8c0-14.4-13.2-35.2-38.8-35.2c-23.1,0-38.8,19.8-38.8,40.3c0,24.4,16.9,41.7,45.7,41.7h54.7
		c-13,20.2-35.5,33-61.3,33C33,603.6,0,570.3,0,529.4s33-74.2,73.9-74.2s74.2,33.4,74.2,74.2c0,8.1-1.4,15.9-3.6,23.1H61.8v-8.1
		l29.1-0.9C105.8,543,112.4,535.5,112.4,523.8L112.4,523.8z"/>
	<path class="st0" d="M210.9,492c0-4.2-3.9-10.3-11.4-10.3c-6.8,0-11.4,5.9-11.4,11.8c0,7.2,5,12.2,13.3,12.2h16
		c-3.8,6-10.4,9.6-18,9.6c-12,0-21.7-9.8-21.7-21.8c0-12,9.6-21.8,21.7-21.8s21.8,9.8,21.8,21.8c0,2.4-0.4,4.7-1.1,6.8h-24.3v-2.4
		l8.6-0.3C208.9,497.7,210.9,495.5,210.9,492L210.9,492z"/>
	<polygon class="st0" points="239.5,485.4 247.7,473.4 259.2,473.4 245,492.9 260.3,514.2 248.1,514.2 239,500.9 229.9,514.2 
		218.3,514.2 233.4,493.5 218.9,473.4 231,473.4 	"/>
	<path class="st0" d="M272.8,481.3c3-6.3,8.3-9.2,13.9-9.2c9.9,0,18.9,8.3,18.9,21.6c0,13.2-9,21.6-18.9,21.6
		c-5.4,0-10.8-2.8-13.9-9.2c-0.2-0.4-0.4-0.3-0.4,0.1v24.8h-10.5v-57.8h10.5v7.9C272.5,481.6,272.7,481.6,272.8,481.3L272.8,481.3z
		 M283.8,506.5c6.2,0,11.5-5.3,11.5-12.9c0-7.5-5.3-12.9-11.5-12.9c-6.1,0-11.5,5.3-11.5,12.9S277.7,506.5,283.8,506.5L283.8,506.5z
		"/>
	<path class="st0" d="M342,492c0-4.2-3.9-10.3-11.4-10.3c-6.8,0-11.4,5.9-11.4,11.8c0,7.2,5,12.2,13.3,12.2h16
		c-3.8,6-10.4,9.6-18,9.6c-12,0-21.7-9.8-21.7-21.8c0-12,9.6-21.8,21.7-21.8s21.8,9.8,21.8,21.8c0,2.4-0.4,4.7-1.1,6.8H327v-2.4
		l8.6-0.3C340,497.7,342,495.5,342,492L342,492z"/>
	<path class="st0" d="M388.7,506.2c-3,6.3-8.3,9.2-13.9,9.2c-9.9,0-18.9-8.3-18.9-21.6c0-13.2,9-21.6,18.9-21.6
		c5.4,0,10.8,2.8,13.9,9.2c0.2,0.4,0.4,0.3,0.4-0.1v-25.7h10.5v58.6h-10.5v-7.9C389.1,505.9,388.8,505.8,388.7,506.2L388.7,506.2z
		 M377.7,480.9c-6.2,0-11.5,5.3-11.5,12.9c0,7.5,5.3,12.9,11.5,12.9c6.1,0,11.5-5.3,11.5-12.9S383.8,480.9,377.7,480.9L377.7,480.9z
		"/>
	<path class="st0" d="M406.3,461.5c0-3.4,2.8-6.2,6.2-6.2s6.2,2.8,6.2,6.2c0,3.4-2.8,6.2-6.2,6.2
		C409.1,467.5,406.3,464.7,406.3,461.5L406.3,461.5z M417.8,473.4v40.8h-10.5v-40.8H417.8L417.8,473.4z"/>
	<path class="st0" d="M455.8,506.2c-3,6.3-8.3,9.2-13.9,9.2c-9.9,0-18.9-8.3-18.9-21.6c0-13.2,9-21.6,18.9-21.6
		c5.4,0,10.8,2.8,13.9,9.2c0.2,0.4,0.4,0.3,0.4-0.1v-7.9h10.5v40.8h-10.5v-7.9C456.3,505.9,455.9,505.8,455.8,506.2L455.8,506.2z
		 M444.9,480.9c-6.2,0-11.5,5.3-11.5,12.9c0,7.5,5.3,12.9,11.5,12.9c6.1,0,11.5-5.3,11.5-12.9S451,480.9,444.9,480.9L444.9,480.9z"
		/>
	<path class="st0" d="M214.4,578.6c0-0.4-0.3-0.4-0.4-0.1c-3,6.3-8.2,9.2-13.7,9.2c-9.8,0-18.7-8.2-18.7-21.5
		c0-13.2,8.9-21.5,18.7-21.5c5.3,0,10.6,2.8,13.7,9.2c0.2,0.4,0.4,0.3,0.4-0.1V546h10.5v38.5c0,11.4-7.8,20.2-21.5,20.2
		c-7.6,0-14.2-2.6-19-7.2l6.3-6.9c4.2,3.4,7.6,5.1,12.5,5.1c7.8,0,11.1-5.4,11.1-12.2L214.4,578.6L214.4,578.6z M203.2,553.6
		c-6.1,0-11.4,5.3-11.4,12.7c0,7.4,5.3,12.7,11.4,12.7c6,0,11.4-5.3,11.4-12.7C214.4,558.9,209.1,553.6,203.2,553.6L203.2,553.6z"/>
	<path class="st0" d="M243,546v8.9c0,0.2,0.2,0.3,0.3,0c1.4-7.3,4.6-10.1,10.1-10.1h1V556h-4.8c-4.3,0-6.5,3.4-6.5,8.1v22.9h-10.5
		v-40.8L243,546L243,546z"/>
	<path class="st0" d="M276.7,544.7c11.9,0,21.7,9.8,21.7,21.8c0,12-9.8,21.8-21.7,21.8c-12.1,0-21.9-9.8-21.9-21.8
		C254.8,554.4,264.8,544.7,276.7,544.7L276.7,544.7z M276.7,554.2c-6.3,0-11.5,5.3-11.5,12.1c0,6.9,5.2,12.1,11.5,12.1
		s11.5-5.3,11.5-12.1C288.3,559.6,283.1,554.2,276.7,554.2L276.7,554.2z"/>
	<path class="st0" d="M320.5,588.2c-10.3,0-17-6.3-17-15.4v-26.8H314v26c0,4.1,2.6,6.7,6.6,6.7c3.6,0,6.3-2.7,6.3-6.6v-26.1h10.5
		v26.8C337.6,582,330.5,588.2,320.5,588.2L320.5,588.2z"/>
	<path class="st0" d="M355.9,554.1c3-6.3,8.3-9.2,13.9-9.2c9.9,0,18.9,8.3,18.9,21.6c0,13.2-9,21.6-18.9,21.6
		c-5.4,0-10.8-2.8-13.9-9.2c-0.2-0.4-0.4-0.3-0.4,0.1v24.8H345V546h10.5v7.9C355.6,554.2,355.8,554.3,355.9,554.1L355.9,554.1z
		 M366.9,579.4c6.2,0,11.5-5.3,11.5-12.9c0-7.6-5.3-12.9-11.5-12.9c-6.1,0-11.5,5.3-11.5,12.9C355.4,573.9,360.8,579.4,366.9,579.4
		L366.9,579.4z"/>
</g>
<g>
	<g>
		<polygon class="st0" points="4410.5,96.7 4410.5,111.8 4433.1,111.8 4433.1,171.1 4449.5,171.1 4449.5,111.8 4472.1,111.8 
			4472.1,96.7 		"/>
		<polygon class="st0" points="4157.8,96.7 4157.8,142.5 4122.9,96.7 4107.8,96.7 4107.8,171.1 4124,171.1 4124,123.9 4159.9,171.1 
			4174,171.1 4174,96.7 		"/>
		<g>
			<path class="st0" d="M4298,144.6h21.5c-1,5.6-6.6,14-20.5,14c-13.5,0-24.5-10.9-24.5-24.7c0-14.2,10.6-24.7,24.8-24.7
				s20.9,11.3,21.1,11.7l12.6-7.9c-7.5-11.9-19.8-18.9-33.7-18.9c-22.2,0-40.3,17.7-40.3,39.5c0,22.2,17.5,39.8,39.8,39.8
				c20.6,0,36.9-15,36.9-35v-8.5H4298V144.6L4298,144.6z"/>
			<path class="st0" d="M4228.5,128.3c-10.8-4.1-21.4-5.4-21.4-12.5c0-4.2,4.3-7.2,13.4-7.2c8.8,0,18.8,4.1,25.5,7.6v-15.8
				c-9.1-3.7-17.6-6-26.5-6c-18,0-30.2,9.2-30.2,22.3c0,14.4,12.3,19.6,20.9,22.7c10.8,3.9,21,5.4,21,12.6c0,4.2-5,7.2-14.2,7.2
				c-8.5,0-19-4.1-25.6-7.6v15.9c9.3,3.9,17.9,5.9,26.6,5.9c18.1,0,30.7-9.2,30.7-22.3C4248.9,136.7,4237,131.6,4228.5,128.3"/>
			<path class="st0" d="M4053.6,94.3c-21.7,0-39.1,17.6-39.1,39.1c0,22.1,17.3,39.9,38.7,39.9c22.3,0,39.9-17.5,39.9-39.9
				C4093,111.9,4075.3,94.3,4053.6,94.3 M4053.4,158c-13.1,0-23.4-10.6-23.4-24c0-13.4,10.4-23.9,23.8-23.9
				c13.3,0,23.5,10.5,23.5,23.8C4077.3,147.5,4067.1,158,4053.4,158"/>
			<polygon class="st0" points="3932.4,96.8 3915.9,96.8 3915.9,171.1 3969.2,171.1 3969.2,156.3 3932.4,156.3 			"/>
			<path class="st0" d="M4535.3,156.6h-34.8v-15.6h31.9c-0.3-2.6-0.4-5.3-0.4-7.9c0-2.2,0.1-4.5,0.4-6.7h-31.8v-15.1h34.4
				c1.3-5.1,3.3-10,5.4-14.6l0,0h-56v74.4h56.6C4538.6,166.5,4536.8,161.5,4535.3,156.6"/>
			<rect x="3982.6" y="96.8" class="st0" width="16.4" height="74.4"/>
			<path class="st0" d="M4370.6,96.7l-31.6,74.4h16.7l5.9-14.7h33.2l5.9,14.7h17.2l-31.6-74.4H4370.6z M4367.2,142.8l11-26.9
				l11.2,26.9H4367.2z"/>
		</g>
	</g>
</g>
<g>
	<polygon class="st0" points="794.1,160.3 808,160.3 801,101.8 	"/>
	<path class="st0" d="M860.2,90.7L860.2,90.7l-0.1,44c2,0,3.9-0.5,5.8-1.5c5.7-2.7,10.7-9.8,10.7-20.8
		C876.5,91.2,862.1,90.7,860.2,90.7z"/>
	<path class="st0" d="M668,53.3v162.9h404.7V53.3H668z M1010.5,147h-22.1v31.3h22.1v24.6h-46.6V79.1L944.2,203l-28.8,0.1
		c0,0-14.7-87.8-14.7-87.9l0,0c2.3,14.1-6.5,29-14.4,34.9l15.6,53l0,0l0,0l0,0l0,0h-24.2l0,0L866,157.9l-5.7,0.9v44.4l0,0l0,0l0,0
		l0,0h-46.7l-2.8-21h-19.2l-2.8,21h-47.6v-65.9l-11.1,65.9h-13.2l-11.2-65.9v65.9h-24.6V66.3h31.4l11.1,70.7l11.3-70.7H766v125.8
		l18.9-125.8h32.7l18.3,121.3l0.1-121.3c0,0,24.8,0,25.1,0c22.5,0,32.7,16.5,35.7,22.2L894,66.3h25l11.3,83.3l11.4-83.3h69.3v24.8
		h-22.1v30.9h21.6L1010.5,147L1010.5,147z M1060.3,203h-45.5V66.3h24.5v112.2h21V203z"/>
</g>
<g id="layer1" transform="translate(-45.747391,-150.40222)">
	<g id="g843" transform="matrix(0.26486393,0,0,0.26486393,42.140101,147.10016)">
		<path id="path1105" class="st0" d="M11456.3,413l-20.3-51.8c-0.8-2.1-2.9-3.7-5.1-3.8l-55.5-3.3c-3.3-0.1-5.8-3-5.5-6.3
			c0.1-1.7,0.9-3.1,2.1-4.2l42.9-35.2c1.8-1.6,2.6-4.1,1.8-6.4l-16.7-52c-1-3.1,0.8-6.4,3.8-7.5c1.6-0.5,3.3-0.3,4.7,0.5l50.3,29
			c1.8,1.1,4.1,1.1,5.9,0l48.8-28.9c2.8-1.7,6.4-0.8,8.1,2c0.9,1.4,1.2,3.1,0.7,4.9l-15.2,52.1c-0.7,2.2,0.1,4.7,2,6.3l42.8,35.2
			c2.5,2.1,2.9,5.8,0.8,8.3c-1.1,1.3-2.6,2.1-4.2,2.1l-55.5,3.3c-2.4,0.1-4.3,1.6-5.1,3.8l-20.5,52c-1.2,3-4.7,4.5-7.7,3.3
			C11458.1,415.6,11456.9,414.4,11456.3,413z"/>
		<path id="path819" class="st0" d="M13261,641.1l-79.1-202.4c-2.6-6.7-9.1-11-16.3-11h-60.2c-7.2,0-13.7,4.5-16.3,11l-79.1,202.4
			c-2.2,5.6,0.5,11.9,6,14.2c1.3,0.5,2.8,0.8,4.2,0.8h44.8c6.8,0,13.1-4.2,15.6-10.6l7.2-18.5c1.7-4.2,5.8-7,10.2-7h74.7
			c4.6,0,8.7,2.8,10.2,7l7.2,18.5c2.5,6.4,8.7,10.6,15.6,10.6h44.8c6,0.1,11-4.7,11-10.8C13261.8,643.8,13261.5,642.4,13261,641.1z
			 M13118.4,548.7l11.5-29.5c1.2-3,4.6-4.5,7.6-3.3c1.4,0.7,2.8,1.8,3.3,3.3l11.5,29.5c1.2,3-0.4,6.4-3.4,7.6
			c-0.7,0.3-1.4,0.4-2.1,0.4h-23.1c-3.3,0-5.9-2.6-5.9-5.8C13118,550.1,13118.2,549.5,13118.4,548.7z"/>
		<path id="path821" class="st0" d="M12008,641.1l-79.1-202.4c-2.6-6.7-9.1-11-16.3-11h-60.2c-7.2,0-13.7,4.5-16.3,11l-79.1,202.4
			c-2.2,5.6,0.4,11.9,6,14.2c1.3,0.5,2.8,0.8,4.2,0.8h44.8c6.8,0,13.1-4.2,15.6-10.6l7.2-18.5c1.7-4.2,5.8-7,10.2-7h74.7
			c4.6,0,8.7,2.8,10.2,7l7.2,18.5c2.5,6.4,8.7,10.6,15.6,10.6h44.8c6,0.1,11-4.7,11-10.8C12008.8,643.8,12008.6,642.4,12008,641.1
			L12008,641.1z M11865.5,548.7l11.6-29.5c1.2-3,4.6-4.5,7.6-3.4c1.6,0.7,2.8,1.8,3.4,3.4l11.6,29.5c1.2,3-0.3,6.4-3.3,7.6
			c-0.7,0.3-1.4,0.4-2.1,0.4h-23.1c-3.3,0-5.9-2.6-5.9-5.8C11865.1,550.1,11865.2,549.5,11865.5,548.7z"/>
		<path id="path823" class="st0" d="M11695.3,641.1l-79.1-202.4c-2.6-6.7-9.1-11-16.3-11h-60.2c-7.2,0-13.7,4.5-16.3,11l-79.1,202.4
			c-2.2,5.6,0.5,11.9,6,14.2c1.3,0.5,2.8,0.8,4.2,0.8h44.8c6.8,0,13.1-4.2,15.6-10.6l7.2-18.5c1.6-4.2,5.8-7.1,10.2-7h74.7
			c4.6,0,8.7,2.8,10.2,7l7.2,18.5c2.5,6.4,8.7,10.6,15.6,10.6h44.8c6,0.1,11-4.7,11.2-10.8
			C11696.1,643.8,11695.8,642.4,11695.3,641.1L11695.3,641.1z M11552.7,548.7l11.5-29.5c1.2-3,4.6-4.5,7.6-3.3
			c1.4,0.7,2.8,1.8,3.3,3.3l11.5,29.5c1.2,3-0.3,6.4-3.3,7.6c-0.7,0.3-1.4,0.4-2.1,0.4h-23.1c-3.3,0-5.9-2.6-5.8-5.9
			C11552.3,550.1,11552.5,549.5,11552.7,548.7z"/>
		<path id="path825" class="st0" d="M12467.3,427.7h-81.9c-9.2,0-16.7,7.5-16.8,16.7l0,0v195c0,9.2,7.5,16.7,16.7,16.7l0,0h81.9
			c63.1,0,114.2-51.2,114.2-114.2S12530.4,427.7,12467.3,427.7z M12466.2,583.7h-19.3c-3.3,0-5.9-2.6-5.9-5.8l0,0v-72.1
			c0-3.3,2.6-5.9,5.9-5.9l0,0h20.3c23.1,0.1,41.7,18.9,41.7,42c0,0.4,0,0.9,0,1.3C12507.8,566,12488.9,583.8,12466.2,583.7
			L12466.2,583.7z"/>
		<path id="path827" class="st0" d="M13532.8,427.7h-39c-9.2,0-16.8,7.5-16.8,16.8v98.3c0,1.6-1.2,2.8-2.8,2.8
			c-1.2,0-2.2-0.7-2.6-1.7l-43.2-102.4c-3.5-8.4-11.7-13.8-20.7-13.8h-60.5c-9.2,0-16.7,7.5-16.8,16.7l0,0v195
			c0,9.2,7.5,16.7,16.7,16.7l0,0h38.9c9.2,0,16.7-7.5,16.7-16.7v-89.6c0-1.6,1.3-2.8,2.8-2.8c1.2,0,2.1,0.7,2.6,1.7l39.5,93.8
			c3.5,8.4,11.7,13.8,20.7,13.8h64.1c9.2,0,16.7-7.5,16.8-16.7v-195C13549.5,435.1,13542,427.7,13532.8,427.7z"/>
		<path id="path829" class="st0" d="M12284.5,641.2l-36.8-71.8c-1.3-2.5-0.5-5.6,1.7-7.4c18-14.2,28.5-36,28.4-58.9
			c-0.3-41.3-34.7-74.2-75.9-74.2h-105.1c-9.2,0-16.7,7.5-16.7,16.7l0,0v194.9c0,9.2,7.5,16.7,16.7,16.8l0,0h38.9
			c9.2,0,16.7-7.5,16.8-16.7l0,0v-56.6c0-3.3,2.6-5.9,5.9-5.9h15c4.2,0,7.9,2.2,9.8,6l32.6,63.3c3.2,6,9.3,9.8,16.1,9.8h43.1
			c6.2,0,11.2-5,11.2-11.2C12285.8,644.6,12285.2,642.8,12284.5,641.2L12284.5,641.2z M12205.2,503.5c0,11-8.9,20-20,20h-26.9
			c-3.3,0-5.9-2.6-5.9-5.9v-28.2c0.1-3.1,2.6-5.6,5.9-5.6h27C12196.4,483.6,12205.3,492.5,12205.2,503.5L12205.2,503.5z"/>
		<path id="path831" class="st0" d="M12924.2,427.7h-67.5c-6.8,0-13.1,4.2-15.6,10.6l-36.9,94.1c-1.2,3-4.6,4.5-7.6,3.4
			c-1.6-0.7-2.8-1.8-3.4-3.4l-36.9-94.1c-2.5-6.4-8.8-10.6-15.6-10.6h-67.2c-9.2,0-16.7,7.5-16.8,16.7l0,0v195
			c0,9.2,7.5,16.7,16.7,16.7l0,0h39.1c9.2,0,16.7-7.5,16.8-16.7l0,0V568c0-1.6,1.3-2.8,2.8-2.8c1.2,0,2.2,0.7,2.6,1.7l30.7,78.6
			c2.5,6.4,8.7,10.6,15.6,10.6h12.3h2.2c0.4,0,0.8,0,1.3,0h20.2c7,0,13.1-4.2,15.6-10.6l30.7-78.6c0.5-1.4,2.1-2.1,3.5-1.6
			c1.1,0.4,1.8,1.4,1.8,2.6v71.4c0,9.2,7.5,16.7,16.8,16.7h38.8c9.2,0,16.7-7.5,16.8-16.7v-195
			C12940.8,435.1,12933.4,427.7,12924.2,427.7z"/>
	</g>
</g>
<g>
	<rect x="5838.1" y="599.7" class="st0" width="254.2" height="10.7"/>
	<rect x="5823.7" y="617.8" class="st0" width="282.4" height="10.7"/>
	<rect x="5810.4" y="635.9" class="st0" width="309.6" height="10.7"/>
	<rect x="5838.1" y="465.3" class="st0" width="254.2" height="10.7"/>
	<polygon class="st0" points="5889.5,458.5 5965.2,435.8 6039.3,458.5 6070.2,458.5 5965.2,426 5858.6,458.5 	"/>
	<polygon class="st0" points="6092.3,458.5 6092.3,447 5965.2,407.8 5838.1,447 5838.1,458.5 5964.4,419.8 	"/>
	<path class="st0" d="M5859.6,482.5h-6.7v103.3h0.1c0,0,0,8,9.1,8s8.5-8,8.5-8V482.5h-6.7v103.6c0,0,0,1.9-2.4,1.9s-1.9-2.4-1.9-2.4
		V482.5L5859.6,482.5z"/>
	<polygon class="st0" points="5900.2,482.5 5894.9,482.5 5894.9,593.8 5900.2,593.8 5900.2,526.9 5906.8,593.8 5912.4,593.8 
		5912.4,482.5 5906.8,482.5 5906.8,542 	"/>
	<polygon class="st0" points="5951.9,488.1 5951.9,482.5 5937.2,482.5 5937.2,593.8 5954.3,593.8 5954.3,588 5944.7,588 
		5944.7,537.6 5951.9,537.6 5951.9,531.5 5944.7,531.5 5944.7,488.1 	"/>
	<path class="st0" d="M6035.3,515.5v-25c0,0-0.3-8-8.8-8s-8.5,8-8.5,8v95.4c0,0-0.3,8,8.5,8c8.8,0,8.8-8,8.8-8v-28h-6.7v28
		c0,0,0,2.1-2.1,2.1c-2,0-2.4-2.1-2.4-2.1v-95.4c0,0,0-2.4,2.4-2.4c2.1,0,2.1,2.4,2.1,2.4v25H6035.3z"/>
	<path class="st0" d="M6059.5,490.5v95.4c0,0,0,8,8.8,8c9.3,0,9.3-8,9.3-8v-95.4c0,0,0.5-8-8.8-8
		C6059.5,482.5,6059.5,490.5,6059.5,490.5z M6071.2,490.4v95.4c0,0,0.3,2.1-2.4,2.1c-2.7,0-2.7-2.1-2.7-2.1v-95.4c0,0,0-2.4,2.4-2.4
		C6071.2,488,6071.2,490.4,6071.2,490.4z"/>
	<path class="st0" d="M5993.5,515.4v-25c0,0,0.3-8.3-8.5-8c-8.8,0.3-8.8,8-8.8,8v21.3c0,14,10.4,37.6,10.4,48.4v25.7h-0.1
		c0,0,0,2.1-1.7,2c-1.7-0.1-1.7-2-1.7-2v-28h-6.9v28c0,0-0.3,8,8.5,8s8.8-8,8.8-8s0-18.7,0-24.1c0-13.1-10.4-38-10.4-46.2v-25.1
		c0,0-0.3-2.4,1.6-2.4s1.9,2.4,1.9,2.4v25L5993.5,515.4L5993.5,515.4z"/>
</g>
</svg>
